<svg width="45" height="37" viewBox="0 0 45 37" fill="none" xmlns="http://www.w3.org/2000/svg">
<g clip-path="url(#clip0_125_477)">
<path d="M40.0305 35.8979C40.0018 35.5537 39.9483 35.2089 39.9483 34.8646C39.9432 29.0666 39.9447 23.268 39.9437 17.4699C39.9437 17.0888 40.0063 16.6966 39.6297 16.2645C37.9932 16.2645 36.2128 16.2519 34.4334 16.2746C34.0553 16.2796 33.8191 16.5315 33.8287 16.953C33.8377 17.3548 33.8307 17.7567 33.8307 18.1585V35.8979" stroke="#325CA0" stroke-width="1.00959" stroke-linecap="round" stroke-linejoin="round"/>
<path d="M20.5693 35.8979C20.5693 31.6496 20.5587 27.4012 20.5769 23.1534C20.5814 22.0731 20.4441 21.9192 19.3638 21.9414C18.0438 21.9681 16.7233 21.9434 15.4027 21.9495C14.5042 21.9535 14.3719 22.0822 14.3709 22.9813C14.3674 27.2872 14.3694 31.5925 14.3694 35.8984" stroke="#325CA0" stroke-width="1.00959" stroke-linecap="round" stroke-linejoin="round"/>
<path d="M30.2139 35.8979V23.0524C29.8731 22.9898 29.6132 22.904 29.3527 22.9015C27.9176 22.8878 26.4824 22.9045 25.0473 22.8909C24.384 22.8843 24.0943 23.1791 24.0958 23.8424C24.1044 27.6889 24.0988 31.5349 24.1038 35.3815C24.1038 35.5536 24.1574 35.7257 24.1861 35.8984" stroke="#325CA0" stroke-width="1.00959" stroke-linecap="round" stroke-linejoin="round"/>
<path d="M10.8384 35.8121C10.7006 35.536 10.7546 35.2392 10.7541 34.9509C10.7505 32.2816 10.7536 29.6117 10.75 26.9424C10.75 26.6259 10.7228 26.3099 10.7041 25.9091H4.7243V35.8984" stroke="#325CA0" stroke-width="1.00959" stroke-linecap="round" stroke-linejoin="round"/>
<path d="M26.4248 18.8476C25.4203 18.1666 24.2497 17.8566 23.1508 17.3882C21.4935 16.6815 19.803 16.049 18.1694 15.2923C17.6374 15.046 17.2169 15.0116 16.7838 15.3221C13.9923 17.3216 11.2154 19.3412 8.41784 21.3322C8.23359 21.4634 8.13061 21.6224 7.99634 21.7754" stroke="#325CA0" stroke-width="1.00959" stroke-linecap="round" stroke-linejoin="round"/>
<path d="M37.7918 3.34726C37.3042 3.38411 36.8842 2.87729 36.3042 3.40733C35.3315 4.29677 35.4375 5.17815 36.7616 5.7521C37.1735 5.93079 37.5728 6.10646 37.8787 6.4472C38.4052 7.03427 38.3537 7.57137 37.7045 8.08122C37.4294 8.29727 37.1346 8.48909 36.8822 8.66879C36.2285 8.46789 35.6253 8.09585 34.9509 8.51433" stroke="#325CA0" stroke-width="1.00959" stroke-linecap="round" stroke-linejoin="round"/>
<path d="M33.4859 12.9919C31.914 14.4553 30.1709 15.7082 28.4915 17.0394C27.803 17.5851 27.1139 18.1302 26.4249 18.6754" stroke="#325CA0" stroke-width="1.00959" stroke-linecap="round" stroke-linejoin="round"/>
<path d="M43.9059 36.0272C43.6474 36.2594 43.3329 36.1493 43.0447 36.1513C41.6096 36.1619 40.1729 36.1922 38.7393 36.1468C37.132 36.0953 35.5197 36.3214 33.912 36.0075C33.4844 35.9237 33.0154 36.173 32.5384 36.167C30.5006 36.1422 28.4587 36.2356 26.4259 36.1337C24.5016 36.0372 22.5814 36.2775 20.6485 36.0393C19.8999 35.9469 19.0513 36.1534 18.2442 36.1549C16.2351 36.1594 14.2189 36.2553 12.2189 36.12C10.9716 36.0352 9.74849 36.1816 8.51325 36.1665C5.8439 36.1337 3.17455 36.1564 0.5047 36.1564" stroke="#325CA0" stroke-width="1.00959" stroke-linecap="round" stroke-linejoin="round"/>
<path d="M36.1557 0.505352C34.1214 0.95159 32.6116 2.0061 31.8408 4.03235C30.8832 6.54824 32.025 9.41749 34.4329 10.6684C37.1068 12.0581 40.0578 10.8259 41.3243 8.94551C42.558 7.11411 42.6615 5.14087 41.6287 3.28222C40.6555 1.53109 39.0573 0.483141 36.9311 0.504847C36.7014 0.507371 36.4717 0.504847 36.2421 0.504847" stroke="#325CA0" stroke-width="1.00959" stroke-linecap="round" stroke-linejoin="round"/>
</g>
<defs>
<clipPath id="clip0_125_477">
<rect width="44.4108" height="36.697" fill="white"/>
</clipPath>
</defs>
</svg>
