<svg width="42" height="36" viewBox="0 0 42 36" fill="none" xmlns="http://www.w3.org/2000/svg">
<g clip-path="url(#clip0_125_451)">
<path d="M35.9886 6.2974C36.6151 6.29148 37.2371 6.38076 37.8018 6.57363C39.8321 7.26764 41.01 8.6759 41.0238 11.3518C41.0569 17.7484 41.0416 24.1455 41.0297 30.5426C41.0268 32.2487 40.4733 33.6994 38.9694 34.6835C37.9276 35.3651 36.7621 35.4993 35.5748 35.5003C25.7037 35.5102 15.8326 35.5087 5.9615 35.4988C5.32717 35.4983 4.66324 35.4978 4.06442 35.3227C1.61391 34.6045 0.519866 33.0291 0.510494 30.543C0.485831 24.146 0.491257 17.7489 0.507042 11.3523C0.514934 8.15502 2.4421 6.44686 5.46479 6.29346L35.9886 6.29839V6.2974Z" stroke="#325CA0" stroke-width="1.01348" stroke-linecap="round" stroke-linejoin="round"/>
<path d="M27.8819 5.97482C27.8819 4.87189 27.8351 3.7665 27.8948 2.66653C27.9559 1.54535 27.5159 0.570675 25.8961 0.537134C22.4512 0.465611 19.0033 0.4957 15.5569 0.525789C14.3321 0.536147 13.6583 1.29182 13.6549 2.5008C13.6519 3.65897 13.6544 4.81714 13.6544 5.97482" stroke="#325CA0" stroke-width="1.01348" stroke-linecap="round" stroke-linejoin="round"/>
<path d="M18.4518 12.8406C17.8501 12.9644 17.7859 13.4147 17.7884 13.9159C17.7938 14.826 17.8042 15.736 17.7854 16.6456C17.7687 17.4491 17.5832 17.6272 16.797 17.6361C15.8598 17.6464 14.9221 17.6287 13.9844 17.6415C13.2667 17.6513 12.9189 17.9961 12.9125 18.7138C12.9007 19.982 12.9002 21.2507 12.9125 22.5188C12.9194 23.2518 13.2563 23.5833 13.9844 23.5917C14.9216 23.602 15.8593 23.5862 16.797 23.5966C17.528 23.605 17.7721 23.8417 17.7854 24.5866C17.8027 25.5514 17.7815 26.5167 17.7923 27.4815C17.8012 28.2816 17.9827 28.4655 18.7823 28.4715C20.1057 28.4813 21.4291 28.4813 22.7531 28.4715C23.5531 28.4655 23.7346 28.2816 23.743 27.4815C23.7534 26.5167 23.7322 25.5514 23.7499 24.5866C23.7632 23.8417 24.0074 23.605 24.7384 23.5966C25.6756 23.5857 26.6133 23.602 27.551 23.5917C28.2795 23.5833 28.6154 23.2523 28.6228 22.5188C28.6352 21.2783 28.6307 20.0372 28.6243 18.7967C28.6204 17.9927 28.2978 17.6607 27.4676 17.643C26.558 17.6237 25.648 17.6464 24.7379 17.6361C23.9517 17.6272 23.7662 17.4496 23.7494 16.6456C23.7307 15.736 23.7544 14.826 23.7425 13.9159C23.7312 13.0221 23.5521 12.846 22.6697 12.8421C21.291 12.8361 19.9124 12.8406 18.5337 12.8406" stroke="#325CA0" stroke-width="1.01348" stroke-linecap="round" stroke-linejoin="round"/>
</g>
<defs>
<clipPath id="clip0_125_451">
<rect width="41.5368" height="36" fill="white"/>
</clipPath>
</defs>
</svg>
