<svg width="41" height="41" viewBox="0 0 41 41" fill="none" xmlns="http://www.w3.org/2000/svg">
<g clip-path="url(#clip0_125_411)">
<path d="M36.3637 11.8892C32.2864 9.07515 25.4303 3.54207 21.3677 0.707405C20.8373 0.33733 20.4616 0.3369 19.9316 0.707405C16.0267 3.43719 12.1025 6.13905 8.18078 8.84433C7.40022 9.3829 4.85612 11.3124 4.10608 11.8892" stroke="#325CA0" stroke-width="0.859641" stroke-linecap="round" stroke-linejoin="round"/>
<path d="M22.6224 17.4471V31.0982" stroke="#325CA0" stroke-width="0.859641" stroke-linecap="round" stroke-linejoin="round"/>
<path d="M18.677 17.4471V31.0982" stroke="#325CA0" stroke-width="0.859641" stroke-linecap="round" stroke-linejoin="round"/>
<path d="M6.28833 17.5262V31.1378" stroke="#325CA0" stroke-width="0.859641" stroke-linecap="round" stroke-linejoin="round"/>
<path d="M31.0657 17.5262C31.1989 17.8061 31.1422 18.1039 31.1422 18.3941C31.1452 22.6286 31.1443 26.8637 31.1443 31.0983" stroke="#325CA0" stroke-width="0.859641" stroke-linecap="round" stroke-linejoin="round"/>
<path d="M35.0111 17.5262V31.1378" stroke="#325CA0" stroke-width="0.859641" stroke-linecap="round" stroke-linejoin="round"/>
<path d="M10.2335 17.5262C10.1003 17.8061 10.157 18.1039 10.157 18.3941C10.154 22.6286 10.1549 26.8637 10.1549 31.0983" stroke="#325CA0" stroke-width="0.859641" stroke-linecap="round" stroke-linejoin="round"/>
<path d="M20.5709 6.79443C19.817 6.91263 19.2423 7.52341 19.3085 8.1359C19.3829 8.82405 20.0031 9.34112 20.7291 9.31963C21.3798 9.30029 21.9915 8.68822 21.9915 8.05725C21.9915 7.39704 21.4202 6.85977 20.65 6.79486" stroke="#325CA0" stroke-width="0.859641" stroke-linecap="round" stroke-linejoin="round"/>
<path d="M2.34302 36.3459V34.0829C3.38447 33.846 4.36747 33.9767 5.34144 33.9406C5.57785 33.932 5.81468 33.9393 6.05151 33.9393H35.2479C36.1424 33.9393 37.0364 33.9367 37.9309 33.9406C38.2536 33.9419 38.5898 33.8779 38.8992 34.1912C39.0338 34.8424 38.9237 35.5967 38.9568 36.3463" stroke="#325CA0" stroke-width="0.859641" stroke-linecap="round" stroke-linejoin="round"/>
<path d="M17.3356 33.7025C17.5634 32.955 17.2195 32.1487 17.642 31.2959H23.6707C24.0696 32.15 23.7408 32.9546 23.9643 33.7025" stroke="#325CA0" stroke-width="0.859641" stroke-linecap="round" stroke-linejoin="round"/>
<path d="M4.94698 33.7025C5.00372 32.94 4.80772 32.1599 5.08495 31.4601C6.01508 31.0329 6.94865 31.3286 7.86589 31.3535C8.86737 31.3806 9.86112 31.1653 10.8669 31.3234C11.3285 31.3961 11.5022 31.6114 11.4979 32.0455C11.4923 32.5979 11.4966 33.1502 11.4966 33.7025" stroke="#325CA0" stroke-width="0.859641" stroke-linecap="round" stroke-linejoin="round"/>
<path d="M11.496 14.8433V17.0173C10.8001 17.276 10.1936 17.3005 9.5201 17.2498C8.48036 17.1716 7.41914 17.1063 6.36264 17.3495C5.52019 17.5434 4.95068 16.979 4.94681 16.1056C4.94509 15.6849 4.94681 15.2641 4.94681 14.8433" stroke="#325CA0" stroke-width="0.859641" stroke-linecap="round" stroke-linejoin="round"/>
<path d="M23.8846 14.8433V17.2301H17.5237C17.3342 16.3769 17.4476 15.6062 17.4141 14.8433" stroke="#325CA0" stroke-width="0.859641" stroke-linecap="round" stroke-linejoin="round"/>
<path d="M36.3527 14.8433V15.9479C36.3527 17.1131 35.7672 17.5443 34.6149 17.2971C33.6272 17.0852 32.5939 17.1093 31.6259 17.2619C30.9662 17.3659 30.4568 17.1475 29.8813 17.0521C29.7265 16.3206 29.8366 15.5795 29.8031 14.8433" stroke="#325CA0" stroke-width="0.859641" stroke-linecap="round" stroke-linejoin="round"/>
<path d="M29.803 33.7025V32.5979C29.803 31.4331 30.3054 31.0535 31.4617 31.2474C32.5328 31.4271 33.6292 31.4421 34.6905 31.2311C35.2514 31.1197 35.6795 31.5092 36.1854 31.3875C36.4914 32.1603 36.2958 32.9405 36.3526 33.703" stroke="#325CA0" stroke-width="0.859641" stroke-linecap="round" stroke-linejoin="round"/>
<path d="M38.6173 11.889H2.09033V14.8539H38.6173V11.889Z" stroke="#325CA0" stroke-width="0.859641" stroke-linecap="round" stroke-linejoin="round"/>
<path d="M40.2771 37.031H0.429688V39.9959H40.2771V37.031Z" stroke="#325CA0" stroke-width="0.859641" stroke-linecap="round" stroke-linejoin="round"/>
</g>
<defs>
<clipPath id="clip0_125_411">
<rect width="40.707" height="40.4259" fill="white"/>
</clipPath>
</defs>
</svg>
