<svg width="37" height="36" viewBox="0 0 37 36" fill="none" xmlns="http://www.w3.org/2000/svg">
<g clip-path="url(#clip0_125_455)">
<path d="M33.6937 4.96497V35.3263" stroke="#325CA0" stroke-width="0.839945" stroke-linecap="round" stroke-linejoin="round"/>
<path d="M33.6937 4.92652C34.0567 4.73154 34.4485 4.71566 34.8482 4.73242C35.3233 4.75271 35.5456 4.5167 35.5425 4.04115C35.5363 3.06622 35.5553 2.09129 35.5341 1.1168C35.524 0.64875 35.3802 0.305099 34.7688 0.493467C34.0717 0.708305 33.3311 0.623164 32.6129 0.700364C29.9532 0.985343 27.2764 1.10225 24.6136 1.35987C22.2804 1.58574 19.9428 1.76132 17.6127 2.00174C16.8473 2.0807 16.0638 2.03968 15.2918 2.23996C14.7364 2.38377 14.5824 2.62287 14.6054 3.11783C14.616 3.34811 14.6054 3.57971 14.6076 3.81043C14.6173 4.64199 14.6879 4.73021 15.5309 4.7311C20.5335 4.73727 25.536 4.73418 30.5386 4.73418C31.2824 4.73418 32.0266 4.74565 32.7704 4.72845C33.0699 4.72183 33.3447 4.78315 33.6169 4.88814" stroke="#325CA0" stroke-width="0.839945" stroke-linecap="round" stroke-linejoin="round"/>
<path d="M15.2226 35.3263C15.2226 32.8506 15.2239 30.3749 15.2217 27.8996C15.2208 26.9542 15.1675 26.9031 14.2221 26.8995C13.6062 26.8973 12.9895 26.922 12.3755 26.8925C11.7504 26.8625 11.5157 27.1214 11.5205 27.7456C11.5399 30.2725 11.5285 32.7994 11.5285 35.3263" stroke="#325CA0" stroke-width="0.839945" stroke-linecap="round" stroke-linejoin="round"/>
<path d="M9.4506 8.81311C9.11269 8.98913 8.75801 9.05309 8.37289 9.04956C6.88491 9.03589 5.39252 9.11529 3.91072 9.0178C3.00328 8.95825 2.11305 9.09677 1.21533 9.04339C0.665219 9.01074 0.439794 9.26396 0.440676 9.81362C0.449499 14.2259 0.449499 18.6387 0.440676 23.051C0.439794 23.6011 0.664778 23.8376 1.21533 23.8252C2.18981 23.8027 3.16474 23.9938 4.13967 23.8208" stroke="#325CA0" stroke-width="0.839945" stroke-linecap="round" stroke-linejoin="round"/>
<path d="M13.9913 11.5067C12.5289 11.5067 11.0669 11.5067 9.60455 11.5067C7.68073 11.5067 5.75646 11.5036 3.83263 11.508C2.99533 11.5102 2.91196 11.5927 2.91064 12.43C2.90666 14.9952 2.90931 17.5609 2.90931 20.1262C2.90931 20.947 3.31972 21.3574 4.14054 21.3574" stroke="#325CA0" stroke-width="0.839945" stroke-linecap="round" stroke-linejoin="round"/>
<path d="M28.3059 35.2112C28.4308 34.9633 28.459 34.6893 28.5953 34.4317C28.9412 33.7797 28.8397 33.1144 28.298 32.6023C27.7743 32.1069 27.5022 31.5673 27.5119 30.824C27.5172 30.4155 27.3685 29.9395 27.1303 29.6078C26.7615 29.0943 26.2864 28.6099 25.5351 28.7489C24.8218 28.8812 24.3458 29.3162 24.0754 29.9788C24.0052 30.1508 23.9293 30.3361 23.9254 30.5165C23.906 31.4513 23.5751 32.1915 22.8679 32.8541C22.5049 33.1947 22.5596 33.8013 22.7409 34.3721C23.0519 35.3528 23.7154 35.5795 24.6113 35.52C25.7914 35.4415 26.9803 35.6678 28.159 35.3126C28.5847 35.1843 29.0391 35.5712 29.538 35.5306C30.9197 35.419 32.3053 35.5376 33.698 35.4256C34.478 35.3629 35.3347 35.4759 36.1561 35.5191" stroke="#325CA0" stroke-width="0.839945" stroke-linecap="round" stroke-linejoin="round"/>
<path d="M26.3054 24.5902C26.0143 23.9232 26.3226 23.2531 26.3376 22.59C26.3575 21.6994 26.1594 21.2304 25.2418 20.8625C22.5359 19.7773 19.8877 18.5461 17.2276 17.3483C16.6236 17.0766 16.0832 17.1913 15.5314 17.4339C13.3755 18.3811 11.2209 19.3313 9.06596 20.2806C8.42454 20.563 7.79458 20.8753 7.13816 21.1166C6.7001 21.2776 6.55717 21.5463 6.60261 21.9737C6.67364 22.639 6.4438 23.3281 6.75745 23.9743C6.87877 24.2245 6.55144 24.359 6.60305 24.5902" stroke="#325CA0" stroke-width="0.839945" stroke-linecap="round" stroke-linejoin="round"/>
<path d="M2.90894 24.0515V35.3263" stroke="#325CA0" stroke-width="0.839945" stroke-linecap="round" stroke-linejoin="round"/>
<path d="M8.29614 24.0515C8.46157 24.3674 8.45187 24.7088 8.45143 25.052C8.44922 28.4766 8.4501 31.9017 8.4501 35.3263" stroke="#325CA0" stroke-width="0.839945" stroke-linecap="round" stroke-linejoin="round"/>
<path d="M16.4542 4.96497V14.585" stroke="#325CA0" stroke-width="0.839945" stroke-linecap="round" stroke-linejoin="round"/>
<path d="M13.9913 9.04379C12.9652 9.04379 11.9391 9.04334 10.913 9.04379C10.2437 9.04423 9.70158 8.98203 9.33411 8.21576C9.04295 7.60874 8.39623 7.17289 7.91274 6.65631C7.77113 6.505 7.60173 6.58706 7.44954 6.58573C6.21831 6.57691 4.98619 6.59985 3.7554 6.57294C3.13074 6.55926 2.86649 6.80277 2.90311 7.42788C2.9309 7.90078 2.9084 8.37678 2.9084 8.85145" stroke="#325CA0" stroke-width="0.839945" stroke-linecap="round" stroke-linejoin="round"/>
<path d="M26.1126 24.1284C25.3361 24.1147 24.6762 23.8266 23.9809 23.4644C22.5168 22.7021 20.9684 22.1031 19.4557 21.4339C18.7102 21.1039 17.9655 20.7717 17.2244 20.4325C16.7078 20.196 16.2 20.1956 15.6839 20.4329C13.5227 21.4268 11.3254 22.34 9.15807 23.3162C8.39312 23.6607 7.71156 24.1416 6.83368 24.1284" stroke="#325CA0" stroke-width="0.839945" stroke-linecap="round" stroke-linejoin="round"/>
<path d="M22.9959 35.2878C22.6346 35.4819 22.2486 35.5256 21.8414 35.5234C19.9943 35.5128 18.1473 35.5186 16.3002 35.5186C14.9662 35.5186 13.6211 35.6258 12.3012 35.4881C11.0126 35.3536 9.73068 35.5075 8.44607 35.448C7.13984 35.3875 5.782 35.4753 4.44754 35.5111C3.1144 35.5468 1.77994 35.519 0.445923 35.519" stroke="#325CA0" stroke-width="0.839945" stroke-linecap="round" stroke-linejoin="round"/>
<path d="M23.2266 17.6637C23.2266 16.8939 23.2129 16.1241 23.231 15.3548C23.2443 14.8042 23.0069 14.5629 22.4568 14.581C21.893 14.5995 21.3284 14.585 20.7637 14.585C19.9429 14.585 19.5325 14.9954 19.5325 15.8162" stroke="#325CA0" stroke-width="0.839945" stroke-linecap="round" stroke-linejoin="round"/>
<path d="M28.7678 25.052C30.8244 25.0445 30.6131 25.2616 30.6131 23.205C30.6131 21.1484 30.8244 21.3654 28.7678 21.3579" stroke="#325CA0" stroke-width="0.839945" stroke-linecap="round" stroke-linejoin="round"/>
<path d="M8.45007 11.7375V17.6634" stroke="#325CA0" stroke-width="0.839945" stroke-linecap="round" stroke-linejoin="round"/>
<path d="M24.6118 24.0515C24.2946 24.9863 24.5307 25.9511 24.4579 26.8991" stroke="#325CA0" stroke-width="0.839945" stroke-linecap="round" stroke-linejoin="round"/>
<path d="M27.4594 14.5851C27.0566 14.6424 26.9159 14.8965 26.919 15.2777C26.9252 16.047 26.9256 16.8168 26.919 17.5866C26.915 18.0622 27.1378 18.2854 27.6134 18.281C28.3827 18.2744 29.1525 18.2744 29.9223 18.281C30.3979 18.2849 30.6206 18.0622 30.6167 17.5866C30.61 16.8173 30.61 16.0475 30.6167 15.2777C30.6206 14.8021 30.3979 14.5793 29.9223 14.5833C29.1269 14.5899 28.332 14.5851 27.5366 14.5851" stroke="#325CA0" stroke-width="0.839945" stroke-linecap="round" stroke-linejoin="round"/>
<path d="M27.4594 7.81261C27.0566 7.86996 26.9159 8.12406 26.919 8.5052C26.9252 9.27456 26.9256 10.0444 26.919 10.8142C26.915 11.2897 27.1378 11.5125 27.6134 11.5085C28.3827 11.5019 29.1525 11.5019 29.9223 11.5085C30.3979 11.5125 30.6206 11.2897 30.6167 10.8142C30.61 10.0448 30.61 9.275 30.6167 8.5052C30.6206 8.02965 30.3979 7.80687 29.9223 7.81084C29.1269 7.81746 28.332 7.81261 27.5366 7.81261" stroke="#325CA0" stroke-width="0.839945" stroke-linecap="round" stroke-linejoin="round"/>
<path d="M18.2241 28.1303C18.0657 28.1987 17.8041 28.1806 17.7737 28.3632C17.6325 29.2053 17.6153 30.0568 17.7688 30.8998C17.8279 31.2245 18.1209 31.209 18.378 31.209C19.1478 31.2086 19.9172 31.2037 20.687 31.2108C21.1625 31.2148 21.3871 30.992 21.3813 30.5164C21.3743 29.9522 21.3743 29.3875 21.3813 28.8233C21.3871 28.3478 21.1625 28.125 20.687 28.129C19.8916 28.1356 19.0967 28.1307 18.3013 28.1307" stroke="#325CA0" stroke-width="0.839945" stroke-linecap="round" stroke-linejoin="round"/>
<path d="M20.0711 7.81261C19.6683 7.86996 19.5276 8.12406 19.5307 8.5052C19.5369 9.27456 19.5373 10.0444 19.5307 10.8142C19.5267 11.2897 19.7495 11.5125 20.2251 11.5085C20.9944 11.5019 21.7642 11.5019 22.534 11.5085C23.0096 11.5125 23.2328 11.2897 23.2284 10.8142C23.2217 10.0448 23.2217 9.275 23.2284 8.5052C23.2323 8.02965 23.0096 7.80687 22.534 7.81084C21.7386 7.81746 20.9437 7.81261 20.1483 7.81261" stroke="#325CA0" stroke-width="0.839945" stroke-linecap="round" stroke-linejoin="round"/>
</g>
<defs>
<clipPath id="clip0_125_455">
<rect width="36.5973" height="36" fill="white"/>
</clipPath>
</defs>
</svg>
