<svg width="39" height="37" viewBox="0 0 39 37" fill="none" xmlns="http://www.w3.org/2000/svg">
<g clip-path="url(#clip0_125_400)">
<path d="M13.2356 26.006C12.2733 21.973 7.90748 4.25641 7.30043 1.36176C7.16334 0.707405 6.83791 0.422276 6.15115 0.438919C4.72988 0.473082 3.3073 0.445051 1.8856 0.450745C1.01619 0.453811 0.438049 0.947422 0.438049 1.66791C0.438049 2.3884 1.01619 2.87982 1.8856 2.88551C2.72346 2.89121 3.56265 2.91617 4.39876 2.87632C4.9388 2.85047 5.19897 3.03881 5.3216 3.57053C5.80952 5.6825 6.33598 7.78571 6.83529 9.89549C7.62848 13.2457 8.41029 16.5989 9.19866 19.9504C9.62877 21.779 10.0654 23.6058 10.4907 25.4357C10.6064 25.9328 10.7982 26.2131 11.4074 26.2114C18.9233 26.189 26.4396 26.1969 33.9554 26.1952C34.0316 26.1952 34.1078 26.1715 34.1841 26.1588" stroke="#325CA0" stroke-width="0.875974" stroke-linecap="round" stroke-linejoin="round"/>
<path d="M9.42682 8.75238C11.5611 8.67442 20.3962 8.67617 22.0719 8.67617H30.0705C32.4575 8.67617 34.8441 8.67486 37.2311 8.67705C38.1312 8.67792 38.2915 8.91575 38.0729 9.81976C37.8526 10.7299 35.6241 20.6836 35.1734 22.1592C34.9295 22.9576 34.7871 23.2191 33.955 23.1565C31.2464 23.1819 13.261 23.2007 12.9307 23.2261" stroke="#325CA0" stroke-width="0.875974" stroke-linecap="round" stroke-linejoin="round"/>
<path d="M37.0468 13.4751C33.542 13.3932 26.1851 13.4344 23.9002 13.402C22.7071 13.3853 21.5136 13.3989 20.32 13.3989C17.4 13.3989 13.3924 13.3998 10.4724 13.3976" stroke="#325CA0" stroke-width="0.875974" stroke-linecap="round" stroke-linejoin="round"/>
<path d="M23.7477 8.9043V22.9589" stroke="#325CA0" stroke-width="0.875974" stroke-linecap="round" stroke-linejoin="round"/>
<path d="M31.2132 8.9043C31.3165 10.3913 29.7398 21.577 29.7963 23.0605" stroke="#325CA0" stroke-width="0.875974" stroke-linecap="round" stroke-linejoin="round"/>
<path d="M13.1191 36.1121C15.188 36.1121 16.8652 34.4349 16.8652 32.366C16.8652 30.2971 15.188 28.6199 13.1191 28.6199C11.0502 28.6199 9.37299 30.2971 9.37299 32.366C9.37299 34.4349 11.0502 36.1121 13.1191 36.1121Z" stroke="#325CA0" stroke-width="0.875974" stroke-linecap="round" stroke-linejoin="round"/>
<path d="M31.6087 36.1121C33.6776 36.1121 35.3548 34.4349 35.3548 32.366C35.3548 30.2971 33.6776 28.6199 31.6087 28.6199C29.5398 28.6199 27.8626 30.2971 27.8626 32.366C27.8626 34.4349 29.5398 36.1121 31.6087 36.1121Z" stroke="#325CA0" stroke-width="0.875974" stroke-linecap="round" stroke-linejoin="round"/>
<path d="M16.2997 8.6853L17.5528 22.9838" stroke="#325CA0" stroke-width="0.875974" stroke-linecap="round" stroke-linejoin="round"/>
<path d="M36.0687 18.1769H11.4214" stroke="#325CA0" stroke-width="0.875974" stroke-linecap="round" stroke-linejoin="round"/>
</g>
<defs>
<clipPath id="clip0_125_400">
<rect width="38.598" height="36.55" fill="white"/>
</clipPath>
</defs>
</svg>
