<svg width="36" height="36" viewBox="0 0 36 36" fill="none" xmlns="http://www.w3.org/2000/svg">
<g clip-path="url(#clip0_125_432)">
<path d="M2.43274 32.8535C1.99871 33.0348 1.5413 32.9974 1.08884 32.9929C0.651671 32.9889 0.446129 33.1944 0.451077 33.6316C0.474464 35.8031 0.197859 35.5395 2.2209 35.54C12.9734 35.5431 23.7259 35.5382 34.4784 35.5463C35.4679 35.5472 35.5776 35.4693 35.5403 34.4803C35.5358 34.3625 35.5399 34.2446 35.5399 34.1268C35.5399 33.0096 35.5322 33.086 34.4105 32.9718C33.4323 32.8724 32.4756 33.0244 31.5077 33.0082C29.1033 32.9678 26.6975 32.9947 24.2926 32.9947C17.36 32.9947 10.4277 32.9947 3.49508 32.9943C3.15865 32.9943 2.81549 33.0352 2.5047 32.8535" stroke="#325CA0" stroke-width="0.898478" stroke-linecap="round" stroke-linejoin="round"/>
<path d="M28.6772 12.4098C29.3613 12.6487 29.5637 13.3863 30.1399 13.787C31.1428 14.4841 32.9837 14.5561 34.0416 13.8077C35.005 13.1259 35.833 11.755 35.4138 10.1421C34.799 7.77772 34.1572 5.42185 33.5099 3.06599C33.3791 2.58969 33.5369 2.03468 33.5581 1.51565C33.5981 0.526174 33.487 0.448815 32.4975 0.449715C22.8299 0.45826 13.1622 0.45826 3.49405 0.449715C2.50457 0.448815 2.30758 0.539218 2.4515 1.51296C2.72451 3.35834 1.83308 4.96175 1.49665 6.67625C1.25243 7.91939 0.829204 9.12611 0.528762 10.3594C0.0637058 12.2691 1.76741 14.3168 3.63528 14.3393C4.96658 14.3551 6.01183 13.9714 6.75574 12.8389C6.88078 12.6487 7.05169 12.4526 7.31435 12.4094" stroke="#325CA0" stroke-width="0.898478" stroke-linecap="round" stroke-linejoin="round"/>
<path d="M30.4458 32.8184C30.4458 28.4445 30.4386 24.0701 30.4517 19.6961C30.4544 18.8087 30.3428 18.69 29.4554 18.6999C27.6402 18.7197 25.8241 18.7044 24.0084 18.7066C23.1394 18.7075 23.0895 18.7565 23.0895 19.6255C23.0881 24.0233 23.089 28.4206 23.089 32.8184" stroke="#325CA0" stroke-width="0.898478" stroke-linecap="round" stroke-linejoin="round"/>
<path d="M2.50385 15.8052C2.48046 16.442 2.43684 17.0785 2.43639 17.7153C2.43054 22.7495 2.43324 27.7837 2.43324 32.8184" stroke="#325CA0" stroke-width="0.898478" stroke-linecap="round" stroke-linejoin="round"/>
<path d="M33.4877 15.8052C33.5111 16.442 33.5547 17.0785 33.5551 17.7153C33.561 22.7495 33.5583 27.7837 33.5583 32.8184" stroke="#325CA0" stroke-width="0.898478" stroke-linecap="round" stroke-linejoin="round"/>
<path d="M14.8831 3.2135C14.7037 5.45108 14.7005 7.699 14.4711 9.93522C14.392 10.7052 14.4685 11.4905 14.455 12.2681C14.4469 12.7417 14.8944 12.8758 15.1103 13.1771C16.5823 15.233 19.4006 15.1912 20.8915 13.1848C21.0759 12.9369 21.2612 12.7049 21.5324 12.551" stroke="#325CA0" stroke-width="0.898478" stroke-linecap="round" stroke-linejoin="round"/>
<path d="M21.1083 3.2135C21.1694 5.31345 21.3799 7.40575 21.4195 9.50885C21.4294 10.0414 21.5126 10.5914 21.536 11.1361C21.5562 11.6079 21.3359 12.1827 21.6269 12.5317C22.2921 13.3296 22.906 14.2242 24.0075 14.5368C25.5731 14.9811 26.9988 14.3065 27.996 13.2118C29.0115 12.0968 28.569 10.9607 28.3918 9.7931C28.1439 8.1645 27.8723 6.53906 27.6186 4.91136C27.5345 4.37119 27.4751 3.82698 27.4041 3.28456" stroke="#325CA0" stroke-width="0.898478" stroke-linecap="round" stroke-linejoin="round"/>
<path d="M8.58726 3.28467C8.28052 5.31265 7.97738 7.34109 7.6657 9.36818C7.58564 9.889 7.49928 10.4107 7.38055 10.9239C7.17186 11.8248 7.41743 12.5988 8.02596 13.2555C8.65923 13.9387 9.3676 14.4653 10.353 14.6219C11.7918 14.8499 12.8659 14.3268 13.7501 13.2586C13.9642 12.9996 14.0793 12.6443 14.4589 12.5525" stroke="#325CA0" stroke-width="0.898478" stroke-linecap="round" stroke-linejoin="round"/>
<path d="M33.3463 2.85999C33.0603 3.03899 32.7396 3.00031 32.4265 3.00076C31.1767 3.00256 29.9223 2.9351 28.6787 3.0219C27.6109 3.09656 26.5553 2.98547 25.4939 2.99896C24.4329 3.01201 23.3719 3.00166 22.3105 3.00166C20.1885 3.00166 18.066 3.00166 15.944 3.00166C13.8688 3.00166 11.7905 2.9324 9.72022 3.0309C8.67497 3.08082 7.64456 2.96253 6.60605 2.99491C5.59318 3.0264 4.57852 3.00301 3.5643 3.00121C3.25126 3.00076 2.93103 3.03944 2.64453 2.86044" stroke="#325CA0" stroke-width="0.898478" stroke-linecap="round" stroke-linejoin="round"/>
<path d="M6.74822 18.7057C6.32274 18.7592 6.25033 19.0516 6.25123 19.4132C6.25528 21.5824 6.24673 23.7521 6.25708 25.9213C6.25977 26.5352 6.4887 26.765 7.10173 26.7664C11.016 26.774 14.9303 26.7664 18.8446 26.7745C19.3502 26.7754 19.5593 26.568 19.5566 26.0625C19.5458 23.8461 19.5404 21.6292 19.5593 19.4132C19.5647 18.7741 19.208 18.7008 18.7029 18.7017C14.7414 18.7089 10.7799 18.7057 6.81883 18.7057" stroke="#325CA0" stroke-width="0.898478" stroke-linecap="round" stroke-linejoin="round"/>
</g>
<defs>
<clipPath id="clip0_125_432">
<rect width="35.9955" height="36" fill="white"/>
</clipPath>
</defs>
</svg>
