<svg width="43" height="44" viewBox="0 0 43 44" fill="none" xmlns="http://www.w3.org/2000/svg">
<path d="M32.7735 27.061C33.0866 25.396 32.2834 24.405 30.6207 24.405C27.916 24.405 25.2107 24.3671 22.5073 24.4242C21.4708 24.4459 20.8421 23.841 20.7695 22.7448C20.6136 20.3864 20.3892 20.1718 18.0361 20.1718C15.6625 20.1718 13.289 20.1694 10.916 20.173C9.52139 20.1748 8.771 20.9318 8.7632 22.3299C8.7632 22.3852 8.7638 22.4405 8.7632 22.4958C8.71161 25.3731 8.73861 28.251 8.71701 31.1276C8.69542 34.0025 8.7452 36.8816 8.7614 39.7588C8.7692 41.1725 9.1141 41.3806 10.3066 42.1298C11.4109 42.8237 12.5056 42.7407 13.6477 42.7425C19.4433 42.7515 25.2389 42.7425 31.0346 42.7497C32.7651 42.7497 32.9187 42.0516 33.7362 41.5357C34.2923 41.1845 34.2821 40.3168 34.2737 39.5923C34.2467 37.3241 34.1963 35.0524 34.2917 32.7878C34.3397 31.6466 34.2329 30.5185 34.2611 29.3838C34.2845 28.4362 33.8898 27.7555 33.0338 27.2859C32.7375 27.1229 32.5678 27.0898 32.2696 27.2095C32.0555 27.2955 31.7796 27.2263 31.5312 27.2263C25.8184 27.2263 20.1055 27.2263 14.3927 27.2263C13.127 27.2263 12.3526 28.0183 12.3202 29.3009C12.2081 33.7548 12.3244 35.4462 12.1757 42.6632" stroke="#325CA0" stroke-width="1.5" stroke-linecap="round" stroke-linejoin="round"/>
<path d="M13.614 10.3416C14.5342 7.19371 16.7314 3.58345 19.6304 2.20646C23.7543 0.247992 27.8116 0.630425 31.3506 3.67305C34.7469 6.59241 35.8818 10.3193 34.7583 14.6932C34.5459 15.5206 34.7043 15.7594 35.5879 15.9404C38.7562 16.5892 40.7861 18.4815 41.72 21.5806C41.72 21.5806 41.9725 22.7087 41.9983 23.2697C42.0151 23.6371 41.8958 24.7375 41.8958 24.7375C41.4669 28.2907 38.4095 31.3092 34.5118 31.4583" stroke="#325CA0" stroke-width="1.5" stroke-linecap="round" stroke-linejoin="round"/>
<path d="M13.5648 10.2953C11.7617 9.78356 10.006 9.60798 8.34386 10.7859C6.78368 11.8918 5.85573 13.3199 5.9643 15.2741C6.00509 16.0107 5.70577 16.4485 5.11913 16.7678C3.04069 17.9 1.65687 19.6541 1.18719 21.9234C0.68633 24.3413 1.1782 26.6828 2.81215 28.6286C4.26556 30.3598 6.14425 31.3417 8.43143 31.4596" stroke="#325CA0" stroke-width="1.5" stroke-linecap="round" stroke-linejoin="round"/>
<path d="M27.2471 7.30316C30.3591 8.15762 32.1904 11.3794 31.3374 14.499C30.4845 17.6186 27.2711 19.4544 24.1592 18.5994" stroke="#325CA0" stroke-width="1.5" stroke-linecap="round" stroke-linejoin="round"/>
<path d="M28.0641 9.33196L27.0504 7.22617L29.2794 6.48596" stroke="#325CA0" stroke-width="1.5" stroke-linecap="round" stroke-linejoin="round"/>
<path d="M21.6681 17.431C18.6089 16.404 16.9594 13.0853 17.9839 10.0181C18.8488 7.42943 21.3424 5.84738 23.9385 6.03499" stroke="#325CA0" stroke-width="1.5" stroke-linecap="round" stroke-linejoin="round"/>
<path d="M20.9657 15.3595L21.8601 17.5182L19.5939 18.1333" stroke="#325CA0" stroke-width="1.5" stroke-linecap="round" stroke-linejoin="round"/>
</svg>
