<svg width="43" height="58" viewBox="0 0 43 58" fill="none" xmlns="http://www.w3.org/2000/svg">
<path d="M35.0148 35.6501C35.0148 35.2153 35.0148 34.7805 35.0148 34.3458C35.0117 24.1259 35.0129 13.9054 35.019 3.68547C35.0202 2.04997 33.9663 0.99879 32.3272 1C22.7497 1.00908 13.1722 1.00303 3.59532 1.00545C2.02174 1.00545 1.09471 1.93734 1.09289 3.50018C1.09289 3.56194 1.09289 3.6237 1.09289 3.68486C1.03825 9.23139 1.20702 38.1854 1 43.7307" stroke="#325CA0" stroke-width="1.5" stroke-linecap="round" stroke-linejoin="round"/>
<path d="M33.318 46.3441C34.378 46.002 35.0191 45.0816 35.0185 43.8058C35.0172 41.9571 35.0166 40.1079 35.016 38.2592" stroke="#325CA0" stroke-width="1.5" stroke-linecap="round" stroke-linejoin="round"/>
<path d="M1.08984 43.9904C1.1032 45.5206 2.05391 46.4852 3.5941 46.4852C7.6944 46.4864 14.2231 46.4852 18.3234 46.4852" stroke="#325CA0" stroke-width="1.5" stroke-linecap="round" stroke-linejoin="round"/>
<path d="M29.1746 9.232C30.9649 8.78392 31.7141 7.60922 31.121 6.18141C30.6851 5.13205 29.6579 4.52472 28.6185 4.70214C27.6089 4.87471 26.6959 5.91559 26.6722 6.92075C26.6497 7.87625 27.4827 8.87051 28.5256 9.14118C28.7145 9.19022 28.8966 9.26288 29.0824 9.32404" stroke="#325CA0" stroke-width="1.5" stroke-linecap="round" stroke-linejoin="round"/>
<path d="M9.24798 28.1829C9.03368 28.7278 8.46726 28.9482 8.13579 29.3848C7.32593 30.4517 6.93557 31.6034 8.31974 32.8986C9.28562 33.8027 10.742 33.7572 11.7522 32.8078C13.0447 31.5931 13.7277 30.0648 14.0592 28.3663C14.299 27.1371 13.8491 26.8174 12.5797 27.0505C11.8123 27.1916 11.1543 27.5428 10.4543 27.8183C10.121 27.9497 9.80469 28.1169 9.43254 28.0902" stroke="#325CA0" stroke-width="1.5" stroke-linecap="round" stroke-linejoin="round"/>
<path d="M7.02299 9.32406C7.86017 9.09215 8.6506 8.81724 9.06889 7.94045C9.57217 6.88443 9.20306 5.76181 8.0429 4.97888C7.22212 4.42543 5.88044 4.66159 5.17622 5.53898C4.5497 6.32009 4.48656 7.57109 5.25817 8.40307C5.71653 8.89717 6.22831 9.24474 6.93011 9.23142" stroke="#325CA0" stroke-width="1.5" stroke-linecap="round" stroke-linejoin="round"/>
<path d="M7.11584 38.2592C8.22925 38.2786 9.00632 39.0204 9.23945 40.1097C9.44829 41.087 8.81812 42.209 7.8577 42.6965C6.74551 43.2608 4.96491 42.2865 4.79735 41.0325C4.58184 39.423 5.50644 38.3222 6.93128 38.2586" stroke="#325CA0" stroke-width="1.5" stroke-linecap="round" stroke-linejoin="round"/>
<path d="M17.6816 16.9045C16.156 17.1624 15.0062 17.969 14.4561 19.4077C13.8533 20.9844 14.2971 22.7828 15.7505 23.8164C17.3914 24.9839 19.4434 24.5558 20.4773 23.5767C21.6405 22.4752 22.2803 20.9869 21.553 19.3175C20.8604 17.7268 19.5751 16.8657 17.7745 16.9045" stroke="#325CA0" stroke-width="1.5" stroke-linecap="round" stroke-linejoin="round"/>
<path d="M26.2156 57.3554C26.2156 57.3554 24.7543 50.854 23.4642 49.5673C22.1742 48.2805 15.895 47.0616 15.895 47.0616C15.895 47.0616 22.1742 45.8427 23.4642 44.556C24.7543 43.2693 26.2156 36.7679 26.2156 36.7679C26.2156 36.7679 27.4377 43.2693 28.7277 44.556C30.0178 45.8427 36.5362 47.0616 36.5362 47.0616C36.5362 47.0616 30.0178 48.5191 28.7277 49.8058C27.4377 51.0925 26.2156 57.3554 26.2156 57.3554V57.3554Z" stroke="#325CA0" stroke-width="1.5" stroke-linecap="round" stroke-linejoin="round"/>
<path d="M36.5362 42.2175C36.5362 42.2175 35.7622 38.7757 35.0792 38.0945C34.3962 37.4133 31.0724 36.7679 31.0724 36.7679C31.0724 36.7679 34.3962 36.1224 35.0792 35.4412C35.7622 34.76 36.5362 31.3182 36.5362 31.3182C36.5362 31.3182 37.1834 34.76 37.8664 35.4412C38.5493 36.1224 42 36.7679 42 36.7679C42 36.7679 38.5493 37.5399 37.8664 38.2211C37.1834 38.9023 36.5362 42.2175 36.5362 42.2175V42.2175Z" stroke="#325CA0" stroke-width="1.5" stroke-linecap="round" stroke-linejoin="round"/>
<path d="M9.24252 28.1871C7.52262 26.178 6.4845 23.5706 6.4845 20.7217C6.4845 14.368 11.649 9.21689 18.0192 9.21689C24.3895 9.21689 29.554 14.368 29.554 20.7217C29.554 27.0754 24.3895 32.2265 18.0192 32.2265C16.4232 32.2265 14.903 31.9032 13.5207 31.3188" stroke="#325CA0" stroke-width="1.5" stroke-linecap="round" stroke-linejoin="round"/>
</svg>
