<svg width="41" height="39" viewBox="0 0 41 39" fill="none" xmlns="http://www.w3.org/2000/svg">
<path d="M21.2857 19.9856C19.1962 17.8296 17.0781 15.7008 14.9006 13.6334C14.2012 12.9693 13.0689 12.7841 12.0186 13.3772C10.7751 14.079 10.3877 15.6841 11.1168 16.8941C11.2828 17.1696 11.5092 17.3874 11.7256 17.6039C13.7116 19.5947 15.7152 21.5681 17.7137 23.5464" stroke="#325CA0" stroke-width="1.5" stroke-linecap="round" stroke-linejoin="round"/>
<path d="M30.9272 16.056C31.0828 16.1864 31.1084 16.4551 31.1541 16.6779C31.5964 18.8372 30.2405 20.9694 28.3061 21.6499C27.2881 22.0081 26.2958 21.9182 25.2829 21.7234L19.3295 27.5527C19.402 27.5138 19.4389 27.5226 19.4591 27.6158C19.6519 28.5069 19.753 29.3889 19.4624 30.2888C18.8625 32.1467 17.5548 33.1637 15.6703 33.4513C15.0318 33.5487 14.3262 33.5336 13.7749 33.1478" stroke="#325CA0" stroke-width="1.5" stroke-linecap="round" stroke-linejoin="round"/>
<path d="M28.2034 13.3499C27.642 12.9813 26.9448 12.9495 26.3054 13.0477C24.4217 13.3374 23.1053 14.3506 22.5167 16.2119C22.2999 16.897 22.2534 17.5917 22.4026 18.2876C22.4513 18.5146 22.4416 18.7486 22.5188 18.9685L16.6505 24.7764C15.6976 24.5804 14.7643 24.5114 13.7975 24.8061C11.9319 25.3741 10.4963 27.4536 10.7722 29.4415C10.8364 29.9026 10.8938 30.3377 11.251 30.6683" stroke="#325CA0" stroke-width="1.5" stroke-linecap="round" stroke-linejoin="round"/>
<path d="M30.5982 15.7463C30.3089 15.8061 30.0791 15.9595 29.8737 16.1685C29.3685 16.6822 28.8574 17.1904 28.3438 17.6958C27.7749 18.2551 27.0484 18.2693 26.5159 17.7388C25.9839 17.2084 25.9981 16.4836 26.5591 15.9164C27.066 15.4044 27.5758 14.8953 28.0906 14.3908C28.3099 14.1755 28.4793 13.9398 28.5145 13.6263" stroke="#325CA0" stroke-width="1.5" stroke-linecap="round" stroke-linejoin="round"/>
<path d="M13.4613 32.8309C13.5212 32.5425 13.6751 32.3135 13.8847 32.1086C14.4 31.6054 14.888 31.072 15.4225 30.5897C15.9973 30.0714 15.9 29.1827 15.4686 28.7522C15.0372 28.3221 14.1459 28.2247 13.6256 28.7982C13.1422 29.3311 12.6073 29.8172 12.1021 30.3314C11.8966 30.5404 11.6665 30.6942 11.3776 30.7535" stroke="#325CA0" stroke-width="1.5" stroke-linecap="round" stroke-linejoin="round"/>
<path d="M23.3694 23.8435L27.4516 27.9134L30.1793 32.1806L25.666 29.694L21.5838 25.6241" stroke="#325CA0" stroke-width="1.5" stroke-linecap="round" stroke-linejoin="round"/>
<rect x="0.75" y="7.75" width="39.5" height="30.5" rx="4.25" stroke="#325CA0" stroke-width="1.5"/>
<path d="M19 0.75H24C26.3472 0.75 28.25 2.65279 28.25 5V7.25H14.75V5C14.75 2.65279 16.6528 0.75 19 0.75Z" stroke="#325CA0" stroke-width="1.5"/>
</svg>
