<svg width="43" height="11" viewBox="0 0 43 11" fill="none" xmlns="http://www.w3.org/2000/svg">
<path d="M5.18332 9.36665C7.49371 9.36665 9.36665 7.49371 9.36665 5.18332C9.36665 2.87294 7.49371 1 5.18332 1C2.87294 1 1 2.87294 1 5.18332C1 7.49371 2.87294 9.36665 5.18332 9.36665Z" stroke="#325CA0" stroke-width="1.5" stroke-miterlimit="10"/>
<path d="M21.5456 9.36665C23.856 9.36665 25.729 7.49371 25.729 5.18332C25.729 2.87294 23.856 1 21.5456 1C19.2352 1 17.3623 2.87294 17.3623 5.18332C17.3623 7.49371 19.2352 9.36665 21.5456 9.36665Z" stroke="#325CA0" stroke-width="1.5" stroke-miterlimit="10"/>
<path d="M37.8166 9.36665C40.127 9.36665 41.9999 7.49371 41.9999 5.18332C41.9999 2.87294 40.127 1 37.8166 1C35.5062 1 33.6333 2.87294 33.6333 5.18332C33.6333 7.49371 35.5062 9.36665 37.8166 9.36665Z" stroke="#325CA0" stroke-width="1.5" stroke-miterlimit="10"/>
</svg>
