<svg width="43" height="42" viewBox="0 0 43 42" fill="none" xmlns="http://www.w3.org/2000/svg">
<path d="M39.4185 24.9167H3.58151C2.15578 24.9167 1 26.0122 1 27.3637V34.4279C1 35.7794 2.15578 36.875 3.58151 36.875H39.4185C40.8442 36.875 42 35.7794 42 34.4279V27.3637C42 26.0122 40.8442 24.9167 39.4185 24.9167Z" stroke="#325CA0" stroke-width="1.5" stroke-linecap="round" stroke-linejoin="round"/>
<path d="M6.125 36.875V40.2917" stroke="#325CA0" stroke-width="1.5" stroke-linecap="round" stroke-linejoin="round"/>
<path d="M36.875 36.875V40.2917" stroke="#325CA0" stroke-width="1.5" stroke-linecap="round" stroke-linejoin="round"/>
<path d="M26.625 29.1875V32.6042" stroke="#325CA0" stroke-width="1.5" stroke-linecap="round" stroke-linejoin="round"/>
<path d="M31.75 29.1875V32.6042" stroke="#325CA0" stroke-width="1.5" stroke-linecap="round" stroke-linejoin="round"/>
<path d="M36.875 29.1875V32.6042" stroke="#325CA0" stroke-width="1.5" stroke-linecap="round" stroke-linejoin="round"/>
<path d="M34.3125 24.9167L42 6.97916" stroke="#325CA0" stroke-width="1.5" stroke-linecap="round" stroke-linejoin="round"/>
<path d="M1 6.97916L8.6875 24.9167" stroke="#325CA0" stroke-width="1.5" stroke-linecap="round" stroke-linejoin="round"/>
<path d="M19.7916 17.9642C20.3674 17.5023 21.0822 17.2292 21.8568 17.2292C22.6956 17.2292 23.4646 17.55 24.0625 18.0833" stroke="#325CA0" stroke-width="1.5" stroke-linecap="round" stroke-linejoin="round"/>
<path d="M15.5209 13.5745C17.1333 12.651 19.1347 12.1042 21.303 12.1042C23.6516 12.1042 25.8046 12.7457 27.4792 13.8125" stroke="#325CA0" stroke-width="1.5" stroke-linecap="round" stroke-linejoin="round"/>
<path d="M11.25 9.9198C14.0141 8.07277 17.4452 6.97916 21.1624 6.97916C25.1883 6.97916 28.8792 8.26216 31.75 10.3958" stroke="#325CA0" stroke-width="1.5" stroke-linecap="round" stroke-linejoin="round"/>
<path d="M9.54163 4.67605C12.8817 2.3671 17.0275 1 21.519 1C26.3838 1 30.8434 2.60393 34.3125 5.27083" stroke="#325CA0" stroke-width="1.5" stroke-linecap="round" stroke-linejoin="round"/>
</svg>
