<svg width="43" height="38" viewBox="0 0 43 38" fill="none" xmlns="http://www.w3.org/2000/svg">
<path d="M12.3538 5.41541L18.0405 18.9548L20.6589 16.2334L28.7538 25.6L22.4396 9.86367L19.6402 12.5809L12.3538 5.41541Z" stroke="#325CA0" stroke-width="1.5" stroke-linecap="round" stroke-linejoin="round"/>
<path d="M16.7692 29.3846V32.5385" stroke="#325CA0" stroke-width="1.5" stroke-linecap="round" stroke-linejoin="round"/>
<path d="M25.6 29.3846V32.5385" stroke="#325CA0" stroke-width="1.5" stroke-linecap="round" stroke-linejoin="round"/>
<path d="M33.3896 33.1693H8.9796C8.05622 33.1693 7.30768 33.8753 7.30768 34.7462C7.30768 35.6171 8.05622 36.3231 8.9796 36.3231H33.3896C34.313 36.3231 35.0615 35.6171 35.0615 34.7462C35.0615 33.8753 34.313 33.1693 33.3896 33.1693Z" stroke="#325CA0" stroke-width="1.5" stroke-linecap="round" stroke-linejoin="round"/>
<path d="M37.2273 1H5.77267C3.1368 1 1 3.16967 1 5.84609V23.9078C1 26.5842 3.1368 28.7538 5.77267 28.7538H37.2273C39.8632 28.7538 42 26.5842 42 23.9078V5.84609C42 3.16967 39.8632 1 37.2273 1Z" stroke="#325CA0" stroke-width="1.5" stroke-linecap="round" stroke-linejoin="round"/>
</svg>
