<svg width="41" height="42" viewBox="0 0 41 42" fill="none" xmlns="http://www.w3.org/2000/svg">
<g clip-path="url(#clip0_147_2518)">
<path d="M21.0719 14.2682C17.057 10.1131 12.9873 6.01033 8.80318 2.02601C7.4595 0.745964 5.28367 0.389099 3.26573 1.53219C0.876428 2.88474 0.132087 5.9781 1.53296 8.31021C1.85197 8.84108 2.28697 9.26078 2.70264 9.67806C6.5186 13.515 10.3684 17.318 14.2085 21.1308" stroke="#325CA0" stroke-width="2" stroke-linecap="round" stroke-linejoin="round"/>
<path d="M39.5975 6.69504C39.8964 6.94637 39.9455 7.46435 40.0333 7.89372C40.8832 12.0553 38.278 16.1644 34.5611 17.4759C32.6052 18.1663 30.6984 17.9931 28.7522 17.6177L17.3132 28.8521C17.4525 28.7772 17.5234 28.7941 17.5621 28.9737C17.9327 30.6912 18.1268 32.3909 17.5685 34.1253C16.4158 37.706 13.9032 39.666 10.2822 40.2202C9.05534 40.4079 7.69958 40.3789 6.64026 39.6354" stroke="#325CA0" stroke-width="2" stroke-linecap="round" stroke-linejoin="round"/>
<path d="M34.3637 1.47983C33.2851 0.769322 31.9454 0.708099 30.717 0.897407C27.0976 1.45566 24.5681 3.40835 23.4371 6.99553C23.0206 8.31585 22.9312 9.6547 23.218 10.996C23.3114 11.4334 23.2929 11.8845 23.4411 12.3082L12.1656 23.5015C10.3346 23.1237 8.54138 22.9908 6.68374 23.5587C3.09898 24.6535 0.340731 28.6612 0.870793 32.4924C0.994044 33.381 1.10441 34.2196 1.79075 34.8568" stroke="#325CA0" stroke-width="2" stroke-linecap="round" stroke-linejoin="round"/>
<path d="M38.9651 6.09812C38.4093 6.21332 37.9678 6.50896 37.5731 6.91174C36.6024 7.90178 35.6204 8.88135 34.6336 9.85527C33.5405 10.9331 32.1444 10.9605 31.1214 9.93825C30.0991 8.91598 30.1265 7.51914 31.2043 6.42599C32.1783 5.43917 33.1578 4.45799 34.1471 3.48568C34.5684 3.07081 34.8938 2.61647 34.9615 2.0123" stroke="#325CA0" stroke-width="2" stroke-linecap="round" stroke-linejoin="round"/>
<path d="M6.03771 39.0247C6.15291 38.4689 6.44855 38.0275 6.85133 37.6327C7.84137 36.6628 8.77905 35.6349 9.80614 34.7053C10.9106 33.7064 10.7237 31.9938 9.89475 31.1641C9.06583 30.3351 7.3532 30.1474 6.35349 31.2527C5.42468 32.2798 4.39678 33.2166 3.42607 34.2075C3.03135 34.6103 2.58909 34.9067 2.03406 35.0211" stroke="#325CA0" stroke-width="2" stroke-linecap="round" stroke-linejoin="round"/>
<path d="M25.0756 21.7035L32.9194 29.5473L38.1604 37.7713L29.4885 32.979L21.6447 25.1352" stroke="#325CA0" stroke-width="2" stroke-linecap="round" stroke-linejoin="round"/>
<path d="M15.222 15.354L6.26086 6.39294" stroke="#325CA0" stroke-width="2" stroke-linecap="round" stroke-linejoin="round"/>
</g>
<defs>
<clipPath id="clip0_147_2518">
<rect width="41" height="41.1241" fill="white"/>
</clipPath>
</defs>
</svg>
