<svg xmlns="http://www.w3.org/2000/svg" viewBox="0 0 17.235 13.128"><defs><style>.cls-1{fill:#315497;}</style></defs><g id="Layer_2" data-name="Layer 2"><g id="Layer_1-2" data-name="Layer 1"><path class="cls-1" d="M15.72,0H1.515A1.518,1.518,0,0,0,0,1.515v10.1a1.517,1.517,0,0,0,1.515,1.514H15.72a1.516,1.516,0,0,0,1.515-1.514V1.515A1.517,1.517,0,0,0,15.72,0Zm-.209,1.01L8.65,7.871,1.729,1.01ZM1.01,11.4V1.719L5.873,6.541Zm.714.714L6.591,7.252l1.7,1.69a.5.5,0,0,0,.712,0l1.663-1.663,4.84,4.84Zm14.5-.714-4.84-4.84,4.84-4.84Z"/></g></g></svg>