<svg xmlns="http://www.w3.org/2000/svg" width="18.538" height="13.04" viewBox="0 0 18.538 13.04">
  <defs>
    <style>
      .cls-1 {
        fill: #343b43;
        stroke: #343b43;
        stroke-miterlimit: 10;
        stroke-width: 0.7px;
      }
    </style>
  </defs>
  <g id="email_icon" transform="translate(5238.35 -134.65)">
    <path id="Path_121" data-name="Path 121" class="cls-1" d="M-24.73,86.8h-15.1A1.37,1.37,0,0,0-41.2,88.168v9.6a1.37,1.37,0,0,0,1.368,1.368h15.1a1.37,1.37,0,0,0,1.368-1.368v-9.6A1.37,1.37,0,0,0-24.73,86.8Zm0,.428a.936.936,0,0,1,.524.16.189.189,0,0,0-.034.02l-6.83,6.284a1.591,1.591,0,0,1-2.139.02l-7.115-6.307a.258.258,0,0,0-.031-.018.937.937,0,0,1,.524-.16Zm.941,10.544a.942.942,0,0,1-.941.941h-15.1a.942.942,0,0,1-.941-.941v-9.6a.928.928,0,0,1,.136-.48.227.227,0,0,0,.028.037l7.115,6.307a2.019,2.019,0,0,0,1.342.511,2.017,2.017,0,0,0,1.37-.536l6.83-6.284a.2.2,0,0,0,.025-.034.93.93,0,0,1,.136.48Z" transform="translate(-5196.8 48.2)"/>
  </g>
</svg>
