<?xml version="1.0" encoding="utf-8"?>
<!-- Generator: Adobe Illustrator 24.2.1, SVG Export Plug-In . SVG Version: 6.00 Build 0)  -->
<svg version="1.1" id="Layer_1" xmlns="http://www.w3.org/2000/svg" xmlns:xlink="http://www.w3.org/1999/xlink" x="0px" y="0px"
	 viewBox="0 0 34.4 37.4" style="enable-background:new 0 0 34.4 37.4;" xml:space="preserve">
<style type="text/css">
	.st0{fill:#325CA0;}
</style>
<g>
	<g>
		<path class="st0" d="M25.47,9.703c-0.103,0-0.206-0.033-0.293-0.1c-0.305-0.235-0.621-0.456-0.947-0.663
			c-0.224-0.142-0.289-0.438-0.147-0.662c0.145-0.225,0.441-0.289,0.663-0.147c0.35,0.223,0.689,0.46,1.018,0.713
			c0.21,0.162,0.249,0.463,0.087,0.673C25.755,9.639,25.613,9.703,25.47,9.703z"/>
		<path class="st0" d="M29.116,13.953c-0.169,0-0.334-0.09-0.421-0.25c-0.434-0.792-0.953-1.543-1.545-2.233
			c-0.173-0.201-0.149-0.504,0.052-0.677c0.201-0.172,0.504-0.148,0.677,0.052c0.635,0.74,1.193,1.547,1.658,2.397
			c0.127,0.232,0.042,0.524-0.19,0.651C29.273,13.934,29.194,13.953,29.116,13.953z"/>
		<path class="st0" d="M30.495,17.716c-0.223,0-0.422-0.156-0.469-0.383c-0.078-0.38-0.173-0.754-0.283-1.122
			c-0.076-0.253,0.068-0.521,0.322-0.597c0.253-0.075,0.521,0.067,0.598,0.322c0.118,0.394,0.219,0.795,0.303,1.204
			c0.054,0.26-0.113,0.513-0.373,0.566C30.561,17.712,30.527,17.716,30.495,17.716z"/>
	</g>
</g>
<g>
	<g>
		<path class="st0" d="M5.605,13.527c-0.083,0-0.168-0.022-0.245-0.068c-0.228-0.135-0.303-0.43-0.167-0.657
			c0.262-0.44,0.554-0.875,0.87-1.291c0.16-0.211,0.461-0.254,0.672-0.093c0.211,0.16,0.253,0.461,0.093,0.672
			c-0.294,0.388-0.566,0.792-0.81,1.202C5.929,13.443,5.769,13.527,5.605,13.527z"/>
		<path class="st0" d="M8.767,9.893c-0.141,0-0.28-0.062-0.375-0.18C8.226,9.507,8.259,9.205,8.466,9.039
			c0.4-0.322,0.825-0.626,1.262-0.905c0.224-0.143,0.521-0.077,0.663,0.146c0.143,0.224,0.077,0.52-0.146,0.663
			C9.836,9.203,9.44,9.487,9.066,9.787C8.978,9.858,8.872,9.893,8.767,9.893z"/>
	</g>
</g>
<g>
	<path class="st0" d="M19.876,32.851c-0.208-0.017-0.388-0.169-0.431-0.384c-0.051-0.258,0.116-0.512,0.376-0.566
		c0.38-0.076,0.757-0.167,1.123-0.275c0.246-0.069,0.521,0.069,0.596,0.325c0.075,0.255-0.072,0.521-0.325,0.596
		c-0.395,0.115-0.796,0.213-1.205,0.297C19.965,32.852,19.92,32.855,19.876,32.851z"/>
	<path class="st0" d="M16.114,33.059c-0.604-0.05-1.214-0.142-1.816-0.272c-0.259-0.055-0.423-0.31-0.367-0.569
		c0.055-0.261,0.319-0.415,0.57-0.368c0.882,0.189,1.785,0.288,2.654,0.297c0.253-0.042,0.478,0.219,0.477,0.482
		c-0.001,0.266-0.216,0.478-0.482,0.477C16.81,33.105,16.461,33.088,16.114,33.059z M11.727,31.935
		c-0.053-0.004-0.104-0.018-0.155-0.041c-0.876-0.388-1.713-0.872-2.487-1.433c-0.214-0.154-0.263-0.455-0.107-0.67
		c0.157-0.217,0.459-0.26,0.671-0.106c0.721,0.521,1.5,0.969,2.315,1.334c0.241,0.107,0.35,0.391,0.243,0.632
		C12.121,31.843,11.925,31.951,11.727,31.935z"/>
</g>
<path class="st0" d="M32.369,21.991h-1.104V20.37c0-0.818-0.666-1.484-1.485-1.485h-4.66c-0.817,0-1.484,0.667-1.485,1.485v1.621
	h-1.102c-0.817,0-1.484,0.666-1.485,1.485V27.1c0,0.817,0.666,1.484,1.485,1.485h1.103v1.619c0,0.818,0.666,1.485,1.485,1.486h4.659
	c0.815-0.001,1.481-0.666,1.485-1.482v-1.623h1.104c0.818-0.001,1.484-0.667,1.485-1.485v-3.623
	C33.854,22.659,33.188,21.992,32.369,21.991z M30.365,26.515v3.69c0,0.322-0.262,0.585-0.584,0.586h-4.659
	c-0.323,0-0.586-0.263-0.586-0.586v-3.69H30.365z M24.535,21.991V20.37c0.001-0.323,0.264-0.586,0.586-0.586h4.659
	c0.322,0,0.584,0.264,0.584,0.586v1.621C30.364,21.991,24.535,21.991,24.535,21.991z M30.815,25.613h-6.729
	c-0.245,0-0.446,0.199-0.45,0.446v1.625h-1.103c-0.323-0.001-0.586-0.264-0.586-0.586v-3.623c0.001-0.322,0.264-0.585,0.586-0.585
	h9.836c0.323,0.001,0.586,0.263,0.586,0.585v3.622c-0.001,0.324-0.265,0.587-0.586,0.587h-1.104v-1.62
	C31.266,25.815,31.063,25.613,30.815,25.613z"/>
<path class="st0" d="M28.92,30.049h-2.89c-0.229,0-0.414-0.186-0.414-0.414s0.186-0.414,0.414-0.414h2.89
	c0.229,0,0.414,0.186,0.414,0.414S29.148,30.049,28.92,30.049z"/>
<path class="st0" d="M27.728,28.774H26.03c-0.229,0-0.414-0.186-0.414-0.414s0.186-0.414,0.414-0.414h1.697
	c0.229,0,0.414,0.186,0.414,0.414S27.956,28.774,27.728,28.774z"/>
<path class="st0" d="M12.601,24.888c-0.136,0-0.271-0.058-0.364-0.167l-3.062-3.573l-0.736,0.771
	c-0.112,0.117-0.28,0.171-0.435,0.141c-0.16-0.029-0.293-0.138-0.355-0.287l-2.394-5.746c-0.088-0.211-0.015-0.455,0.175-0.583
	c0.188-0.129,0.442-0.104,0.605,0.057l2.731,2.708l0.84-0.822c0.115-0.113,0.277-0.161,0.435-0.126
	c0.157,0.033,0.287,0.143,0.346,0.292l2.658,6.678c0.087,0.218,0.003,0.467-0.198,0.588C12.772,24.865,12.687,24.888,12.601,24.888z
	 M9.194,19.953c0.004,0,0.008,0,0.013,0c0.136,0.003,0.263,0.064,0.352,0.167l1.531,1.786l-1.325-3.33l-0.663,0.649
	c-0.187,0.183-0.487,0.183-0.673-0.002L7.065,17.87l1.188,2.854l0.595-0.623C8.938,20.007,9.063,19.953,9.194,19.953z"/>
<path class="st0" d="M16.84,13.834H2.185c-0.917,0-1.663,0.746-1.663,1.663v9.053c0,0.917,0.746,1.663,1.663,1.663h5.143v1.194
	H4.339c-0.265,0-0.479,0.215-0.479,0.479s0.216,0.479,0.481,0.479h10.342c0.265,0,0.48-0.215,0.48-0.479s-0.215-0.479-0.48-0.479
	h-2.992v-1.194h5.148l0,0c0.916-0.001,1.663-0.747,1.664-1.663v-9.053C18.503,14.58,17.757,13.834,16.84,13.834z M10.731,27.407
	H8.288v-1.194h2.443V27.407z M17.543,24.549c0,0.388-0.317,0.704-0.705,0.705H2.185c-0.388,0-0.703-0.316-0.703-0.704v-9.053
	c0-0.388,0.315-0.703,0.703-0.703H16.84c0.388,0,0.704,0.315,0.704,0.703v9.052H17.543z"/>
<path class="st0" d="M22.751,6.914c-0.137,0-0.273-0.053-0.377-0.158C22.353,6.733,20.113,4.48,17.23,4.48
	c-2.882,0-5.108,2.251-5.13,2.274c-0.202,0.208-0.536,0.213-0.744,0.011c-0.208-0.202-0.214-0.535-0.012-0.744
	c0.102-0.106,2.549-2.594,5.886-2.594c3.335,0,5.795,2.487,5.898,2.593c0.203,0.208,0.198,0.541-0.01,0.744
	C23.016,6.864,22.884,6.914,22.751,6.914z"/>
<path class="st0" d="M13.975,8.977c-0.132,0-0.264-0.049-0.366-0.148c-0.208-0.202-0.214-0.536-0.012-0.745
	c0.063-0.065,1.573-1.601,3.636-1.601c2.062,0,3.579,1.535,3.642,1.6c0.202,0.208,0.198,0.54-0.01,0.743
	c-0.207,0.202-0.541,0.198-0.743-0.008c-0.013-0.013-1.279-1.282-2.889-1.282c-1.622,0-2.867,1.267-2.879,1.28
	C14.25,8.923,14.113,8.977,13.975,8.977z"/>
<path class="st0" d="M15.889,11.167c-0.132,0-0.264-0.049-0.366-0.148c-0.209-0.202-0.215-0.535-0.013-0.744
	c0.075-0.078,0.759-0.756,1.724-0.756c0.964,0,1.651,0.677,1.726,0.754c0.203,0.208,0.198,0.542-0.01,0.745
	c-0.209,0.202-0.543,0.198-0.744-0.01c-0.002-0.002-0.442-0.436-0.972-0.436c-0.523,0-0.963,0.43-0.967,0.435
	C16.164,11.114,16.027,11.167,15.889,11.167z"/>
</svg>
