<svg xmlns="http://www.w3.org/2000/svg" width="41.412" height="35.081" viewBox="0 0 41.412 35.081">
  <defs>
    <style>
      .cls-1, .cls-2 {
        fill: none;
        stroke: #325ca0;
        stroke-miterlimit: 10;
        stroke-width: 1.4px;
      }

      .cls-2 {
        stroke-linecap: round;
        stroke-linejoin: round;
      }
    </style>
  </defs>
  <g id="Icon1" transform="translate(-1.3 -0.8)">
    <path id="Path_113" data-name="Path 113" class="cls-1" d="M39.232,28.344H4.781A2.782,2.782,0,0,1,2,25.563V4.281A2.782,2.782,0,0,1,4.781,1.5H39.232a2.782,2.782,0,0,1,2.781,2.781V25.563A2.782,2.782,0,0,1,39.232,28.344Z" transform="translate(0 0)"/>
    <line id="Line_1" data-name="Line 1" class="cls-1" y2="4" transform="translate(26 28.139)"/>
    <line id="Line_2" data-name="Line 2" class="cls-1" y1="4" transform="translate(18 28.139)"/>
    <path id="Path_114" data-name="Path 114" class="cls-1" d="M63.5,64.5" transform="translate(-30.351 -31.092)"/>
    <path id="Path_115" data-name="Path 115" class="cls-1" d="M19.5,64.5" transform="translate(-8.637 -31.092)"/>
    <path id="Path_116" data-name="Path 116" class="cls-2" d="M24.949,7.807l5.627,13.508L33.167,18.6l8.01,9.345-6.248-15.7-2.77,2.711Z" transform="translate(-11.909 -2.714)"/>
    <path id="Path_117" data-name="Path 117" class="cls-2" d="M40.331,65.039H16.019A1.517,1.517,0,0,1,14.5,63.519h0A1.517,1.517,0,0,1,16.019,62H40.331a1.517,1.517,0,0,1,1.519,1.519h0A1.517,1.517,0,0,1,40.331,65.039Z" transform="translate(-6.169 -29.858)"/>
  </g>
</svg>
