<?xml version="1.0" encoding="utf-8"?>
<!-- Generator: Adobe Illustrator 24.2.1, SVG Export Plug-In . SVG Version: 6.00 Build 0)  -->
<svg version="1.1" id="Layer_1" xmlns="http://www.w3.org/2000/svg" xmlns:xlink="http://www.w3.org/1999/xlink" x="0px" y="0px"
	 viewBox="0 0 34.4 37.4" style="enable-background:new 0 0 34.4 37.4;" xml:space="preserve">
<style type="text/css">
	.st0{fill:#325CA0;}
</style>
<path class="st0" d="M30.839,20.472h-3.124l5.572-13.001c0.127-0.297-0.012-0.644-0.309-0.771c-0.298-0.127-0.644,0.01-0.771,0.309
	l-5.77,13.463H7.471L1.701,7.008C1.638,6.864,1.525,6.752,1.379,6.694C1.233,6.635,1.074,6.638,0.929,6.7
	C0.632,6.827,0.495,7.173,0.622,7.472l5.571,13H3.07c-1.413,0-2.562,1.148-2.562,2.562v5.922c0,1.412,1.148,2.561,2.562,2.561h1.453
	v1.454c0,0.323,0.263,0.586,0.587,0.586c0.323,0,0.586-0.263,0.586-0.586v-1.454h22.517v1.454c0,0.323,0.263,0.586,0.587,0.586
	s0.587-0.263,0.587-0.586v-1.454h1.453c1.412,0,2.561-1.148,2.561-2.561v-5.922C33.4,21.62,32.252,20.472,30.839,20.472z
	 M32.227,28.955c0,0.765-0.623,1.388-1.388,1.388H3.07c-0.765,0-1.388-0.623-1.388-1.388v-5.922c0-0.765,0.623-1.388,1.388-1.388
	h27.77c0.765,0,1.388,0.623,1.388,1.388L32.227,28.955L32.227,28.955z"/>
<path class="st0" d="M15.147,15.301c-0.11,0.11-0.172,0.258-0.172,0.415s0.062,0.304,0.173,0.416c0.221,0.222,0.607,0.219,0.83,0
	c0.151-0.152,0.481-0.407,0.977-0.407s0.824,0.255,0.977,0.408c0.229,0.229,0.601,0.229,0.831,0c0.11-0.111,0.172-0.258,0.172-0.415
	s-0.062-0.304-0.172-0.415c-0.281-0.281-0.89-0.752-1.808-0.752S15.428,15.02,15.147,15.301L15.147,15.301z"/>
<path class="st0" d="M7.597,7.758c2.501-2.502,5.824-3.88,9.357-3.88s6.856,1.378,9.357,3.88c0.11,0.111,0.258,0.172,0.414,0.172
	c0.001,0,0.001,0,0.001,0c0.156,0,0.304-0.061,0.415-0.172c0.229-0.229,0.229-0.601,0-0.83c-2.722-2.724-6.34-4.225-10.188-4.225
	s-7.466,1.5-10.188,4.224C6.656,7.04,6.594,7.187,6.594,7.344s0.062,0.304,0.172,0.415C6.997,7.988,7.369,7.988,7.597,7.758z"/>
<path class="st0" d="M24.349,10.549c0.11-0.111,0.172-0.258,0.172-0.415s-0.062-0.304-0.173-0.416
	c-1.975-1.978-4.601-3.067-7.394-3.067c-2.792,0-5.419,1.089-7.395,3.067c-0.229,0.229-0.229,0.602,0,0.83
	c0.111,0.111,0.259,0.172,0.415,0.172c0,0,0,0,0.001,0c0.156,0,0.304-0.061,0.414-0.172c1.755-1.755,4.086-2.722,6.564-2.722
	s4.81,0.967,6.563,2.722C23.747,10.777,24.119,10.778,24.349,10.549z"/>
<path class="st0" d="M21.14,13.511c0.157,0,0.305-0.061,0.415-0.172h0.001c0.11-0.11,0.172-0.258,0.172-0.415
	s-0.062-0.304-0.172-0.415c-1.231-1.231-2.865-1.909-4.602-1.909c-1.737,0-3.371,0.678-4.601,1.909
	c-0.111,0.111-0.173,0.258-0.173,0.415s0.062,0.304,0.172,0.415c0.111,0.111,0.259,0.172,0.415,0.172
	c0.157,0,0.305-0.061,0.415-0.172c1.01-1.009,2.349-1.564,3.771-1.564s2.762,0.556,3.771,1.564
	C20.837,13.45,20.984,13.511,21.14,13.511z"/>
<path class="st0" d="M20.903,24.42c-0.324,0-0.587,0.263-0.587,0.587v1.975c0,0.323,0.263,0.586,0.587,0.586
	s0.587-0.263,0.587-0.586v-1.975C21.49,24.683,21.227,24.42,20.903,24.42z"/>
<path class="st0" d="M24.851,24.42c-0.324,0-0.587,0.263-0.587,0.587v1.975c0,0.323,0.263,0.586,0.587,0.586
	s0.587-0.263,0.587-0.586v-1.975C25.438,24.683,25.175,24.42,24.851,24.42z"/>
<path class="st0" d="M28.799,24.42c-0.324,0-0.587,0.263-0.587,0.587v1.975c0,0.323,0.263,0.586,0.587,0.586
	s0.587-0.263,0.587-0.586v-1.975C29.386,24.683,29.124,24.42,28.799,24.42z"/>
</svg>
