<?xml version="1.0" encoding="utf-8"?>
<!-- Generator: Adobe Illustrator 24.2.1, SVG Export Plug-In . SVG Version: 6.00 Build 0)  -->
<svg version="1.1" id="Layer_1" xmlns="http://www.w3.org/2000/svg" xmlns:xlink="http://www.w3.org/1999/xlink" x="0px" y="0px"
	 viewBox="0 0 34.4 37.4" style="enable-background:new 0 0 34.4 37.4;" xml:space="preserve">
<style type="text/css">
	.st0{fill:#325CA0;}
</style>
<path class="st0" d="M29.723,26.69h-3.955c-0.364,0-0.659-0.295-0.659-0.659s0.295-0.659,0.659-0.659h3.955
	c1.09,0,1.977-0.887,1.977-1.977v-9.227c0-1.09-0.887-1.977-1.977-1.977H4.677c-1.09,0-1.977,0.887-1.977,1.977v9.227
	c0,1.09,0.887,1.977,1.977,1.977h3.955c0.364,0,0.659,0.295,0.659,0.659S8.996,26.69,8.632,26.69H4.677
	c-1.818,0-3.295-1.479-3.295-3.295v-9.227c0-1.816,1.478-3.295,3.295-3.295h25.045c1.818,0,3.295,1.479,3.295,3.295v9.227
	C33.018,25.211,31.54,26.69,29.723,26.69z"/>
<path class="st0" d="M20.495,30.644h-7.909c-0.364,0-0.659-0.295-0.659-0.659s0.295-0.659,0.659-0.659h7.909
	c0.364,0,0.659,0.295,0.659,0.659C21.155,30.349,20.859,30.644,20.495,30.644z"/>
<path class="st0" d="M20.495,28.008h-7.909c-0.364,0-0.659-0.295-0.659-0.659s0.295-0.659,0.659-0.659h7.909
	c0.364,0,0.659,0.295,0.659,0.659C21.155,27.712,20.859,28.008,20.495,28.008z"/>
<path class="st0" d="M15.223,25.371h-2.636c-0.364,0-0.659-0.295-0.659-0.659s0.295-0.659,0.659-0.659h2.636
	c0.364,0,0.659,0.295,0.659,0.659S15.587,25.371,15.223,25.371z"/>
<path class="st0" d="M25.768,12.19c-0.364,0-0.659-0.295-0.659-0.659V6.258c0-1.09-0.887-1.977-1.977-1.977H11.268
	c-1.09,0-1.977,0.887-1.977,1.977v5.273c0,0.364-0.295,0.659-0.659,0.659s-0.659-0.295-0.659-0.659V6.258
	c0-1.816,1.478-3.295,3.295-3.295h11.864c1.818,0,3.295,1.479,3.295,3.295v5.273C26.427,11.894,26.132,12.19,25.768,12.19z"/>
<path class="st0" d="M23.132,34.599H11.268c-1.818,0-3.295-1.479-3.295-3.295V20.758c0-0.364,0.295-0.659,0.659-0.659h17.136
	c0.364,0,0.659,0.295,0.659,0.659v10.545C26.427,33.12,24.95,34.599,23.132,34.599z M9.291,21.417v9.886
	c0,1.09,0.887,1.977,1.977,1.977h11.864c1.09,0,1.977-0.887,1.977-1.977v-9.886H9.291z"/>
</svg>
