<?xml version="1.0" encoding="utf-8"?>
<!-- Generator: Adobe Illustrator 24.2.1, SVG Export Plug-In . SVG Version: 6.00 Build 0)  -->
<svg version="1.1" id="Layer_1" xmlns="http://www.w3.org/2000/svg" xmlns:xlink="http://www.w3.org/1999/xlink" x="0px" y="0px"
	 viewBox="0 0 34.4 37.4" style="enable-background:new 0 0 34.4 37.4;" xml:space="preserve">
<style type="text/css">
	.st0{fill:#325CA0;}
</style>
<path class="st0" d="M22.294,27.828h4.448l0.031,0.109c0.408,1.436,1.733,2.438,3.224,2.438c1.848,0,3.352-1.503,3.352-3.352
	s-1.504-3.352-3.352-3.352c-1.49,0-2.816,1.002-3.224,2.438l-0.031,0.109h-3.644V22.19H26.7c3.666,0,6.649-2.982,6.649-6.648
	c0-2.902-1.94-5.519-4.717-6.363L28.55,9.154l-0.021-0.083c-0.848-3.396-3.884-5.769-7.383-5.769c-1.35,0-2.669,0.354-3.816,1.021
	L17.234,4.38l-0.081-0.074c-1.225-1.12-2.817-1.736-4.484-1.736c-3.607,0-6.527,2.823-6.646,6.428L6.02,9.108l-0.106,0.03
	c-2.863,0.8-4.863,3.434-4.863,6.405c0,3.666,2.983,6.648,6.649,6.648h3.602v4.028H7.658L7.627,26.11
	c-0.408-1.436-1.733-2.438-3.224-2.438c-1.848,0-3.352,1.503-3.352,3.352s1.504,3.352,3.352,3.352c1.49,0,2.816-1.002,3.224-2.438
	l0.031-0.109h4.449c0.444,0,0.805-0.36,0.805-0.805V22.19h3.483v6.035l-0.109,0.031c-1.436,0.407-2.438,1.733-2.438,3.224
	c0,1.848,1.504,3.351,3.352,3.351s3.352-1.503,3.352-3.351c0-1.49-1.002-2.816-2.438-3.224l-0.109-0.031V22.19h3.483v4.833
	C21.488,27.467,21.85,27.828,22.294,27.828z M29.997,25.281c0.96,0,1.742,0.782,1.742,1.742s-0.781,1.742-1.742,1.742
	c-0.96,0-1.741-0.782-1.741-1.742S29.037,25.281,29.997,25.281z M4.403,28.765c-0.96,0-1.742-0.782-1.742-1.742
	s0.781-1.742,1.742-1.742c0.96,0,1.741,0.782,1.741,1.742S5.363,28.765,4.403,28.765z M18.941,31.48c0,0.96-0.781,1.742-1.741,1.742
	s-1.742-0.782-1.742-1.742s0.781-1.742,1.742-1.742C18.16,29.738,18.941,30.52,18.941,31.48z M7.7,20.581
	c-2.778,0-5.039-2.261-5.039-5.039c0-2.483,1.851-4.626,4.306-4.985c0.423-0.062,0.724-0.445,0.685-0.871
	C7.638,9.531,7.63,9.374,7.63,9.218c0-2.778,2.26-5.039,5.039-5.039c1.482,0,2.88,0.645,3.835,1.768
	c0.273,0.322,0.753,0.375,1.092,0.126c1.027-0.759,2.255-1.161,3.55-1.161c2.956,0,5.446,2.115,5.92,5.03
	c0.054,0.328,0.309,0.593,0.635,0.659c2.339,0.474,4.037,2.551,4.037,4.939c0,2.778-2.26,5.039-5.039,5.039H7.7V20.581z"/>
</svg>
