<svg width="38" height="38" viewBox="0 0 38 38" fill="none" xmlns="http://www.w3.org/2000/svg">
<circle cx="19" cy="19" r="19" fill="#53C4FF"/>
<path d="M19.5476 15.9855C17.458 13.8296 15.34 11.7008 13.1624 9.6334C12.4631 8.96922 11.3307 8.78405 10.2805 9.37718C9.03698 10.079 8.64959 11.684 9.37866 12.8941C9.54469 13.1696 9.77108 13.3873 9.98742 13.6038C11.9734 15.5947 13.977 17.568 15.9756 19.5463" stroke="#1A2A44" stroke-width="1.5" stroke-linecap="round" stroke-linejoin="round"/>
<path d="M29.1891 12.056C29.3446 12.1864 29.3702 12.4551 29.4159 12.6779C29.8582 14.8372 28.5023 16.9694 26.5679 17.6499C25.55 18.0081 24.5576 17.9182 23.5447 17.7234L17.5914 23.5527C17.6639 23.5138 17.7008 23.5226 17.7209 23.6158C17.9138 24.5069 18.0148 25.3889 17.7243 26.2888C17.1243 28.1467 15.8167 29.1637 13.9321 29.4513C13.2936 29.5487 12.588 29.5336 12.0367 29.1478" stroke="#1A2A44" stroke-width="1.5" stroke-linecap="round" stroke-linejoin="round"/>
<path d="M26.4652 9.34993C25.9038 8.98127 25.2066 8.9495 24.5673 9.04773C22.6836 9.33739 21.3671 10.3506 20.7785 12.2119C20.5618 12.897 20.5152 13.5917 20.6645 14.2876C20.7131 14.5146 20.7035 14.7486 20.7806 14.9685L14.9124 20.7764C13.9594 20.5804 13.0262 20.5114 12.0594 20.8061C10.1937 21.3741 8.75819 23.4536 9.03405 25.4415C9.0982 25.9026 9.15564 26.3377 9.51284 26.6683" stroke="#1A2A44" stroke-width="1.5" stroke-linecap="round" stroke-linejoin="round"/>
<path d="M28.86 11.7463C28.5707 11.8061 28.341 11.9595 28.1355 12.1685C27.6303 12.6822 27.1193 13.1904 26.6057 13.6958C26.0368 14.2551 25.3102 14.2693 24.7778 13.7388C24.2457 13.2084 24.26 12.4836 24.8209 11.9164C25.3278 11.4044 25.8376 10.8953 26.3525 10.3908C26.5717 10.1755 26.7411 9.93977 26.7763 9.62628" stroke="#1A2A44" stroke-width="1.5" stroke-linecap="round" stroke-linejoin="round"/>
<path d="M11.7231 28.8309C11.7831 28.5425 11.9369 28.3135 12.1466 28.1086C12.6618 27.6054 13.1498 27.072 13.6844 26.5897C14.2592 26.0714 14.1619 25.1827 13.7305 24.7522C13.2991 24.3221 12.4077 24.2247 11.8875 24.7982C11.4041 25.3311 10.8691 25.8172 10.3639 26.3314C10.1585 26.5404 9.9283 26.6942 9.63943 26.7535" stroke="#1A2A44" stroke-width="1.5" stroke-linecap="round" stroke-linejoin="round"/>
<path d="M21.6312 19.8435L25.7135 23.9134L28.4411 28.1806L23.9279 25.694L19.8456 21.6241" stroke="#1A2A44" stroke-width="1.5" stroke-linecap="round" stroke-linejoin="round"/>
</svg>
