<svg xmlns="http://www.w3.org/2000/svg" width="190.866" height="26.989" viewBox="0 0 190.866 26.989">
  <defs>
    <style>
      .cls-1 {
        fill: #fff;
      }
    </style>
  </defs>
  <g id="Group_36" data-name="Group 36" transform="translate(-155.254 -386.257)">
    <path id="Path_100" data-name="Path 100" class="cls-1" d="M566.343,406.014v.88c0,5.346-.009,10.692.013,16.038,0,.565-.188.813-.719.815-1.605.007-3.211.011-4.817,0-.539,0-.8-.232-.788-.849.042-1.773.014-3.548.014-5.323v-.8H554.9v6.847a18.268,18.268,0,0,1-2.139.262c-1.148.008-2.3-.082-3.445-.134-.557-.025-.763-.28-.761-.875q.035-8.676,0-17.352c0-.589.2-.885.753-.891,1.628-.017,3.256-.02,4.884,0,.461.006.7.228.688.783-.042,1.862-.016,3.725-.016,5.643h5.141c.014-.269.039-.536.039-.8,0-1.544.048-3.09-.018-4.631-.032-.748.283-1.009.933-1.016,1.445-.017,2.889-.013,4.334-.018,1.19,0,2.38-.02,3.571-.01,1.01.009,2.019.053,3.029.072a1.144,1.144,0,0,1,1.07.794c.928,1.928,1.894,3.838,2.849,5.753.071.141.16.273.286.484.133-.217.247-.375.333-.548.965-1.935,1.936-3.868,2.88-5.813a1,1,0,0,1,.871-.649,25.15,25.15,0,0,1,5.881.107c-.143.3-.237.548-.366.772-2.065,3.592-4.149,7.173-6.187,10.78a3.625,3.625,0,0,0-.425,1.613c-.053,1.7-.037,3.41-.008,5.115.007.451-.175.657-.573.661q-2.545.025-5.091.007c-.461,0-.664-.241-.655-.751.031-1.8.018-3.594,0-5.392a1.842,1.842,0,0,0-.162-.86q-3.045-5.375-6.127-10.73Z" transform="translate(-239.943 -11.162)"/>
    <path id="Path_101" data-name="Path 101" class="cls-1" d="M161.288,399.387v12.635c0,1.139,0,1.2-1.164,1.232-1.371.039-2.745-.044-4.117-.064-.653-.01-.755-.381-.748-.947.025-2.234.01-4.469.01-6.7,0-5.874.012-11.748-.015-17.623,0-.7.187-1.024.91-1.013,1.281.019,2.563.014,3.845,0a1.221,1.221,0,0,1,1.121.755q3.708,6.309,7.448,12.6a1.081,1.081,0,0,0,.419.429v-.716q0-5.978,0-11.956c0-1.007,0-1.062,1-1.1,1.442-.048,2.887-.006,4.33,0,.493,0,.657.23.655.732q-.025,12.4-.009,24.81c0,.448-.13.647-.586.741a9.679,9.679,0,0,1-4.442-.093,1.449,1.449,0,0,1-.707-.666q-3.771-6.272-7.512-12.562c-.1-.175-.216-.347-.324-.521Z" transform="translate(0 -0.392)"/>
    <path id="Path_102" data-name="Path 102" class="cls-1" d="M273.777,410.447c.086,1.11.217,2.069.225,3.029.027,3.249-.009,6.5.025,9.747.007.692-.235.965-.9.962-1.56-.009-3.12-.005-4.68-.007-.572,0-.79-.258-.785-.854.025-3.087.019-6.175,0-9.263a9.276,9.276,0,0,0-.152-1.85,2.046,2.046,0,0,0-2.3-1.9c-.252-.009-.506.039-.758.029-.592-.022-.774.237-.771.833.025,4.055,0,8.111.028,12.167,0,.607-.2.842-.771.841-1.56,0-3.12,0-4.68,0-.61,0-.878-.23-.875-.913.027-5.484.016-10.969.015-16.453,0-.372-.026-.7.468-.86a20.99,20.99,0,0,1,10.606-.8,3.046,3.046,0,0,1,1.052.31,2.371,2.371,0,0,0,2.369.046,11.763,11.763,0,0,1,7.388-.267,6.513,6.513,0,0,1,4.855,6.258c.1,3.983.068,7.969.108,11.954,0,.469-.193.7-.634.7q-2.512.017-5.024,0c-.579,0-.692-.355-.69-.871q.024-4.77,0-9.54a7.422,7.422,0,0,0-.161-1.64,2,2,0,0,0-2.128-1.773A17.115,17.115,0,0,0,273.777,410.447Z" transform="translate(-62.311 -11.3)"/>
    <path id="Path_103" data-name="Path 103" class="cls-1" d="M383.95,393.977c0-2.108.031-4.11-.017-6.111-.017-.7.228-.951.895-.943,1.559.018,3.118.009,4.678.013.521,0,.762.192.76.785q-.028,12.094,0,24.188a.723.723,0,0,1-.663.839,25.64,25.64,0,0,1-8.815.8c-5.349-.543-7.926-4.062-8.176-8.62a10.7,10.7,0,0,1,1.951-7.306,8.811,8.811,0,0,1,6.76-3.633C382.162,393.932,383.009,393.977,383.95,393.977ZM383.9,408.16v-8.9c-2.409-.512-4.1.4-4.62,2.648a10.421,10.421,0,0,0-.178,3.2A3.014,3.014,0,0,0,381.542,408,14.844,14.844,0,0,0,383.9,408.16Z" transform="translate(-132.588 -0.406)"/>
    <path id="Path_104" data-name="Path 104" class="cls-1" d="M206.338,414.647a10.969,10.969,0,0,1,.962-5.1,8.08,8.08,0,0,1,6.569-4.757,11.849,11.849,0,0,1,4.592.17,7.889,7.889,0,0,1,5.974,5.379,12.719,12.719,0,0,1-.045,8.652c-1.207,3.305-3.735,4.957-7.14,5.37a11.733,11.733,0,0,1-4.784-.335c-3.578-1.063-5.4-3.614-6-7.177a7.549,7.549,0,0,1-.121-.888C206.322,415.523,206.338,415.085,206.338,414.647Zm12.585.025a27.1,27.1,0,0,0-.73-3.094,2.737,2.737,0,0,0-4.981-.019,8.278,8.278,0,0,0-.006,6.123A2.466,2.466,0,0,0,215.7,419.3a2.432,2.432,0,0,0,2.49-1.616A27.443,27.443,0,0,0,218.923,414.672Z" transform="translate(-31.159 -11.216)"/>
    <path id="Path_105" data-name="Path 105" class="cls-1" d="M465.149,415.921a3.063,3.063,0,0,0,2.87,2.43,11.81,11.81,0,0,0,5.282-.737c.559-.209.84-.078.975.433.349,1.325.688,2.653.979,3.992a.726.726,0,0,1-.348.613,16.372,16.372,0,0,1-10.548.447,7.521,7.521,0,0,1-5.082-5.227,12.884,12.884,0,0,1,.089-8c1.541-4.568,5.73-6.306,9.892-5.834,3.941.447,6.724,3.4,6.977,7.721.068,1.161-.1,2.334-.106,3.5,0,.583-.29.672-.781.67-3.132-.013-6.264-.006-9.4-.006Zm5.355-4.4a2.694,2.694,0,1,0-5.385,0Z" transform="translate(-185.115 -10.8)"/>
    <path id="Path_106" data-name="Path 106" class="cls-1" d="M436.219,392.161v.93c0,6.129-.01,12.258.014,18.388,0,.666-.147.967-.862,1.069a17.1,17.1,0,0,1-5.289-.069c-.549-.092-.431-.445-.431-.764q-.008-5.91,0-11.821v-7.728c-.3-.017-.545-.041-.789-.042-1.567,0-3.134-.015-4.7.005-.427.006-.636-.149-.705-.56a13.762,13.762,0,0,1,0-4.731.6.6,0,0,1,.692-.581q8.745.017,17.489,0c.448,0,.629.142.708.616a14.847,14.847,0,0,1,.019,4.531c-.087.63-.351.733-.892.724-1.474-.025-2.949-.01-4.424-.007C436.8,392.124,436.552,392.145,436.219,392.161Z" transform="translate(-163.496)"/>
    <path id="Path_107" data-name="Path 107" class="cls-1" d="M338.092,411.706a1.566,1.566,0,0,0-1.251-1.644,13.813,13.813,0,0,0-3.332-.254,15.229,15.229,0,0,0-2.82.6.529.529,0,0,1-.717-.286,7.484,7.484,0,0,1-.945-3.7.856.856,0,0,1,.382-.676,16.938,16.938,0,0,1,9.294-.722,6.564,6.564,0,0,1,5.239,6.667c.075,3.662.028,7.327.007,10.99a.762.762,0,0,1-.378.593,21.162,21.162,0,0,1-11.019.688c-4.247-1.021-5.36-4.609-4.526-7.973a4.979,4.979,0,0,1,2.71-3.161,10.858,10.858,0,0,1,5.136-1.121C336.583,411.7,337.293,411.706,338.092,411.706Zm.113,3.891a29.766,29.766,0,0,0-3.2.293,1.809,1.809,0,0,0-1.693,1.988c.044.937.664,1.575,1.9,1.717a17.168,17.168,0,0,0,2.66-.021.475.475,0,0,0,.323-.333C338.215,418.077,338.205,416.912,338.205,415.6Z" transform="translate(-105.247 -11.22)"/>
    <path id="Path_108" data-name="Path 108" class="cls-1" d="M506.631,414.2c.029-3.175.675-5.75,2.753-7.791a8.775,8.775,0,0,1,5.648-2.428,14.216,14.216,0,0,1,6.31.82.769.769,0,0,1,.6.849,10.042,10.042,0,0,1-.936,3.857c-.177.387-.366.5-.79.344a8.99,8.99,0,0,0-3.8-.455,3.362,3.362,0,0,0-3.24,2.779,7.093,7.093,0,0,0,.031,3.413,3.32,3.32,0,0,0,3.444,2.707,18.419,18.419,0,0,0,3.509-.558c.484-.111.709-.049.92.378a8.217,8.217,0,0,1,1,4.105.876.876,0,0,1-.443.634,14.618,14.618,0,0,1-6.026.859,10.017,10.017,0,0,1-4.443-1.107,8.392,8.392,0,0,1-4.352-6.438C506.684,415.395,506.667,414.609,506.631,414.2Z" transform="translate(-214.366 -10.775)"/>
  </g>
</svg>
