<?xml version="1.0" encoding="utf-8"?>
<!-- Generator: Adobe Illustrator 24.2.1, SVG Export Plug-In . SVG Version: 6.00 Build 0)  -->
<svg version="1.1" id="Layer_1" xmlns="http://www.w3.org/2000/svg" xmlns:xlink="http://www.w3.org/1999/xlink" x="0px" y="0px"
	 viewBox="0 0 190.866 51.072" style="enable-background:new 0 0 190.866 51.072;" xml:space="preserve">
<style type="text/css">
	.st0{fill:#2E2E2E;}
	.st1{fill:#315497;}
</style>
<g>
	<path class="st0" d="M28.7,47.743v-8.733h1.016v8.733H28.7z"/>
	<path class="st0" d="M34.799,47.743h-1.015v-7.831h-2.766v-0.902h6.547v0.902h-2.766V47.743z"/>
	<path class="st0" d="M45.796,39.791c-0.96,0-1.718,0.32-2.273,0.959c-0.555,0.64-0.833,1.515-0.833,2.625
		c0,1.144,0.268,2.026,0.803,2.649c0.536,0.624,1.299,0.936,2.291,0.936c0.609,0,1.304-0.109,2.085-0.329v0.891
		c-0.605,0.227-1.352,0.34-2.24,0.34c-1.287,0-2.279-0.39-2.978-1.171c-0.699-0.78-1.048-1.89-1.048-3.327
		c0-0.899,0.168-1.688,0.505-2.365s0.822-1.199,1.458-1.565s1.383-0.55,2.243-0.55c0.916,0,1.716,0.168,2.401,0.502l-0.43,0.872
		C47.118,39.947,46.457,39.791,45.796,39.791z"/>
	<path class="st0" d="M55.277,44.463c0,1.067-0.269,1.9-0.807,2.5s-1.28,0.898-2.228,0.898c-0.585,0-1.105-0.137-1.559-0.412
		c-0.454-0.274-0.805-0.669-1.052-1.183c-0.247-0.514-0.37-1.115-0.37-1.804c0-1.067,0.267-1.898,0.8-2.494s1.274-0.894,2.222-0.894
		c0.916,0,1.644,0.305,2.184,0.914S55.277,43.423,55.277,44.463z M50.289,44.463c0,0.836,0.167,1.474,0.502,1.911
		c0.334,0.438,0.826,0.657,1.476,0.657c0.649,0,1.142-0.218,1.479-0.654c0.336-0.436,0.504-1.074,0.504-1.914
		c0-0.833-0.168-1.465-0.504-1.896c-0.337-0.433-0.833-0.648-1.491-0.648c-0.649,0-1.139,0.213-1.469,0.639
		C50.454,42.984,50.289,43.619,50.289,44.463z"/>
	<path class="st0" d="M61.495,47.743v-4.235c0-0.533-0.122-0.932-0.365-1.194c-0.243-0.264-0.623-0.395-1.141-0.395
		c-0.685,0-1.187,0.186-1.505,0.556c-0.319,0.37-0.478,0.981-0.478,1.834v3.435h-0.992v-6.547h0.807l0.161,0.896h0.048
		c0.203-0.322,0.488-0.572,0.854-0.749c0.367-0.178,0.775-0.267,1.225-0.267c0.789,0,1.382,0.19,1.78,0.571
		c0.398,0.38,0.598,0.988,0.598,1.824v4.271H61.495z"/>
	<path class="st0" d="M68.747,45.956c0,0.609-0.227,1.079-0.681,1.41c-0.454,0.33-1.091,0.495-1.912,0.495
		c-0.868,0-1.545-0.137-2.031-0.412v-0.92c0.314,0.159,0.652,0.285,1.012,0.377c0.36,0.091,0.708,0.137,1.042,0.137
		c0.518,0,0.916-0.082,1.195-0.248c0.279-0.165,0.418-0.417,0.418-0.755c0-0.255-0.11-0.474-0.332-0.654
		c-0.221-0.182-0.652-0.396-1.293-0.643c-0.609-0.227-1.042-0.425-1.299-0.594c-0.257-0.17-0.448-0.361-0.574-0.577
		c-0.125-0.215-0.188-0.472-0.188-0.771c0-0.533,0.217-0.954,0.651-1.264c0.434-0.308,1.03-0.463,1.786-0.463
		c0.705,0,1.394,0.144,2.067,0.431l-0.353,0.807c-0.657-0.271-1.252-0.406-1.786-0.406c-0.47,0-0.824,0.073-1.063,0.221
		c-0.239,0.147-0.358,0.351-0.358,0.609c0,0.175,0.045,0.324,0.134,0.448c0.09,0.123,0.234,0.241,0.433,0.353
		s0.582,0.272,1.147,0.483c0.776,0.283,1.301,0.567,1.574,0.854C68.61,45.162,68.747,45.523,68.747,45.956z"/>
	<path class="st0" d="M71.292,41.196v4.247c0,0.533,0.121,0.932,0.364,1.194c0.243,0.264,0.623,0.395,1.141,0.395
		c0.685,0,1.186-0.188,1.502-0.562c0.316-0.374,0.475-0.985,0.475-1.834v-3.44h0.992v6.547h-0.818l-0.144-0.878H74.75
		c-0.203,0.322-0.485,0.569-0.845,0.74c-0.36,0.172-0.771,0.257-1.233,0.257c-0.797,0-1.393-0.188-1.789-0.567
		c-0.396-0.378-0.595-0.983-0.595-1.815v-4.283H71.292z"/>
	<path class="st0" d="M78.86,47.743h-0.992v-9.295h0.992V47.743z"/>
	<path class="st0" d="M83.078,47.043c0.175,0,0.344-0.013,0.508-0.038c0.163-0.026,0.292-0.053,0.388-0.081v0.759
		c-0.107,0.052-0.266,0.095-0.475,0.128c-0.209,0.034-0.397,0.051-0.565,0.051c-1.266,0-1.899-0.667-1.899-2.001v-3.895h-0.938
		v-0.479l0.938-0.412l0.418-1.397h0.574v1.518h1.899v0.771h-1.899v3.853c0,0.395,0.093,0.697,0.281,0.908
		C82.494,46.938,82.751,47.043,83.078,47.043z"/>
	<path class="st0" d="M85.198,39.421c0-0.227,0.056-0.394,0.167-0.499c0.112-0.105,0.251-0.158,0.418-0.158
		c0.159,0,0.296,0.054,0.412,0.161c0.115,0.107,0.173,0.273,0.173,0.496s-0.058,0.39-0.173,0.499
		c-0.116,0.109-0.253,0.164-0.412,0.164c-0.167,0-0.307-0.055-0.418-0.164C85.254,39.811,85.198,39.644,85.198,39.421z
		 M86.273,47.743h-0.992v-6.547h0.992V47.743z"/>
	<path class="st0" d="M92.856,47.743v-4.235c0-0.533-0.122-0.932-0.365-1.194c-0.243-0.264-0.623-0.395-1.141-0.395
		c-0.685,0-1.187,0.186-1.505,0.556c-0.319,0.37-0.478,0.981-0.478,1.834v3.435h-0.992v-6.547h0.807l0.161,0.896h0.048
		c0.203-0.322,0.488-0.572,0.854-0.749c0.367-0.178,0.775-0.267,1.225-0.267c0.789,0,1.382,0.19,1.78,0.571
		c0.398,0.38,0.598,0.988,0.598,1.824v4.271H92.856z"/>
	<path class="st0" d="M101.244,41.196v0.627l-1.213,0.144c0.111,0.14,0.211,0.321,0.299,0.547c0.087,0.225,0.131,0.479,0.131,0.761
		c0,0.642-0.219,1.153-0.657,1.536c-0.438,0.382-1.039,0.573-1.804,0.573c-0.195,0-0.378-0.016-0.55-0.048
		c-0.422,0.223-0.633,0.504-0.633,0.842c0,0.18,0.073,0.312,0.221,0.397s0.4,0.129,0.759,0.129h1.159
		c0.709,0,1.253,0.149,1.634,0.447c0.38,0.299,0.57,0.733,0.57,1.303c0,0.725-0.291,1.277-0.872,1.657
		c-0.582,0.381-1.43,0.571-2.545,0.571c-0.856,0-1.517-0.16-1.98-0.479s-0.696-0.769-0.696-1.35c0-0.398,0.127-0.743,0.382-1.033
		c0.255-0.291,0.613-0.488,1.075-0.592c-0.167-0.075-0.308-0.193-0.421-0.353c-0.114-0.159-0.17-0.345-0.17-0.556
		c0-0.239,0.063-0.448,0.192-0.627c0.127-0.18,0.328-0.353,0.603-0.52c-0.339-0.14-0.614-0.377-0.827-0.711
		c-0.213-0.335-0.32-0.717-0.32-1.147c0-0.717,0.215-1.27,0.646-1.657c0.43-0.389,1.039-0.583,1.827-0.583
		c0.343,0,0.651,0.04,0.926,0.12H101.244z M96.023,48.842c0,0.354,0.148,0.623,0.447,0.806c0.299,0.184,0.727,0.275,1.284,0.275
		c0.832,0,1.449-0.125,1.849-0.374c0.4-0.249,0.601-0.586,0.601-1.012c0-0.354-0.109-0.601-0.328-0.738
		c-0.22-0.138-0.632-0.206-1.236-0.206H97.45c-0.45,0-0.8,0.107-1.052,0.322C96.148,48.131,96.023,48.44,96.023,48.842z
		 M96.561,43.292c0,0.458,0.129,0.805,0.388,1.039c0.259,0.235,0.619,0.353,1.082,0.353c0.968,0,1.451-0.47,1.451-1.41
		c0-0.983-0.49-1.475-1.47-1.475c-0.466,0-0.824,0.125-1.075,0.376S96.561,42.798,96.561,43.292z"/>
	<path class="st0" d="M105.389,45.479c0-0.518,0.139-0.976,0.415-1.374c0.277-0.398,0.774-0.801,1.491-1.207
		c-0.339-0.378-0.569-0.665-0.69-0.86c-0.121-0.194-0.218-0.397-0.29-0.609c-0.071-0.211-0.107-0.43-0.107-0.657
		c0-0.597,0.195-1.062,0.586-1.397c0.39-0.334,0.934-0.502,1.631-0.502c0.645,0,1.152,0.167,1.522,0.499
		c0.371,0.333,0.556,0.796,0.556,1.389c0,0.427-0.135,0.819-0.406,1.18c-0.271,0.36-0.719,0.727-1.344,1.097l2.432,2.336
		c0.223-0.247,0.401-0.537,0.534-0.869c0.134-0.333,0.246-0.696,0.338-1.091h1.003c-0.271,1.14-0.679,2.003-1.225,2.593l1.786,1.738
		h-1.367l-1.105-1.063c-0.47,0.422-0.948,0.725-1.434,0.908c-0.486,0.183-1.027,0.274-1.625,0.274c-0.856,0-1.521-0.211-1.992-0.633
		S105.389,46.223,105.389,45.479z M108.113,46.972c0.959,0,1.756-0.307,2.389-0.92l-2.61-2.533
		c-0.441,0.271-0.755,0.495-0.938,0.672c-0.184,0.178-0.318,0.368-0.406,0.571s-0.132,0.434-0.132,0.692
		c0,0.466,0.154,0.836,0.463,1.108S107.6,46.972,108.113,46.972z M107.187,40.747c0,0.274,0.072,0.537,0.216,0.785
		c0.143,0.249,0.388,0.549,0.734,0.899c0.514-0.299,0.871-0.574,1.072-0.827s0.302-0.545,0.302-0.875
		c0-0.307-0.103-0.557-0.308-0.75s-0.479-0.29-0.821-0.29c-0.354,0-0.643,0.096-0.863,0.287S107.187,40.425,107.187,40.747z"/>
	<path class="st0" d="M122.951,45.418c0,0.77-0.278,1.368-0.836,1.799c-0.558,0.43-1.314,0.645-2.271,0.645
		c-1.035,0-1.832-0.133-2.39-0.399v-0.98c0.358,0.151,0.749,0.271,1.171,0.358c0.423,0.088,0.841,0.132,1.255,0.132
		c0.677,0,1.187-0.129,1.529-0.386s0.514-0.614,0.514-1.072c0-0.303-0.061-0.55-0.183-0.743c-0.121-0.193-0.324-0.371-0.609-0.535
		c-0.284-0.163-0.718-0.348-1.299-0.556c-0.812-0.29-1.393-0.635-1.741-1.033s-0.522-0.918-0.522-1.559
		c0-0.673,0.253-1.209,0.758-1.607c0.506-0.398,1.175-0.598,2.008-0.598c0.868,0,1.666,0.16,2.396,0.479l-0.316,0.884
		c-0.722-0.303-1.422-0.454-2.104-0.454c-0.537,0-0.957,0.116-1.26,0.347c-0.303,0.231-0.454,0.552-0.454,0.962
		c0,0.303,0.056,0.551,0.167,0.743c0.111,0.193,0.3,0.371,0.564,0.532s0.67,0.34,1.216,0.534c0.916,0.327,1.546,0.678,1.891,1.052
		S122.951,44.822,122.951,45.418z"/>
	<path class="st0" d="M127.354,47.862c-0.968,0-1.731-0.294-2.291-0.884c-0.56-0.589-0.84-1.407-0.84-2.455
		c0-1.056,0.261-1.894,0.78-2.515s1.218-0.933,2.094-0.933c0.82,0,1.47,0.271,1.947,0.81c0.478,0.54,0.717,1.252,0.717,2.136v0.627
		h-4.51c0.02,0.769,0.214,1.353,0.582,1.751s0.887,0.597,1.556,0.597c0.705,0,1.402-0.146,2.091-0.441v0.884
		c-0.35,0.151-0.682,0.26-0.994,0.325C128.174,47.83,127.796,47.862,127.354,47.862z M127.086,41.907
		c-0.526,0-0.945,0.171-1.258,0.514s-0.497,0.816-0.553,1.422h3.423c0-0.626-0.14-1.104-0.418-1.438
		C128.001,42.073,127.604,41.907,127.086,41.907z"/>
	<path class="st0" d="M134.438,41.076c0.291,0,0.552,0.024,0.782,0.072l-0.137,0.92c-0.271-0.06-0.51-0.09-0.717-0.09
		c-0.53,0-0.983,0.215-1.359,0.646c-0.376,0.43-0.564,0.966-0.564,1.606v3.513h-0.991v-6.547h0.818l0.113,1.213h0.048
		c0.242-0.427,0.535-0.755,0.878-0.986C133.652,41.192,134.028,41.076,134.438,41.076z"/>
	<path class="st0" d="M137.88,47.743l-2.485-6.547h1.063l1.409,3.883c0.319,0.908,0.506,1.497,0.562,1.768h0.048
		c0.044-0.211,0.183-0.647,0.416-1.311c0.232-0.663,0.755-2.109,1.567-4.34h1.063l-2.485,6.547H137.88z"/>
	<path class="st0" d="M142.491,39.421c0-0.227,0.056-0.394,0.167-0.499s0.251-0.158,0.418-0.158c0.159,0,0.297,0.054,0.412,0.161
		c0.116,0.107,0.174,0.273,0.174,0.496s-0.058,0.39-0.174,0.499c-0.115,0.109-0.253,0.164-0.412,0.164
		c-0.167,0-0.307-0.055-0.418-0.164S142.491,39.644,142.491,39.421z M143.566,47.743h-0.991v-6.547h0.991V47.743z"/>
	<path class="st0" d="M148.286,47.862c-0.948,0-1.682-0.291-2.201-0.875c-0.52-0.583-0.78-1.408-0.78-2.476
		c0-1.096,0.265-1.941,0.792-2.539s1.279-0.896,2.255-0.896c0.314,0,0.629,0.034,0.944,0.102c0.314,0.068,0.562,0.147,0.74,0.239
		l-0.305,0.843c-0.219-0.088-0.458-0.161-0.717-0.219s-0.487-0.086-0.687-0.086c-1.33,0-1.995,0.848-1.995,2.544
		c0,0.805,0.162,1.422,0.486,1.853c0.324,0.43,0.806,0.645,1.442,0.645c0.546,0,1.105-0.117,1.679-0.353v0.879
		C149.503,47.748,148.951,47.862,148.286,47.862z"/>
	<path class="st0" d="M154.26,47.862c-0.968,0-1.731-0.294-2.291-0.884c-0.56-0.589-0.84-1.407-0.84-2.455
		c0-1.056,0.261-1.894,0.78-2.515s1.218-0.933,2.094-0.933c0.82,0,1.47,0.271,1.947,0.81c0.478,0.54,0.717,1.252,0.717,2.136v0.627
		h-4.51c0.02,0.769,0.214,1.353,0.582,1.751s0.887,0.597,1.556,0.597c0.705,0,1.402-0.146,2.091-0.441v0.884
		c-0.35,0.151-0.682,0.26-0.994,0.325C155.079,47.83,154.701,47.862,154.26,47.862z M153.991,41.907
		c-0.526,0-0.945,0.171-1.258,0.514s-0.497,0.816-0.553,1.422h3.423c0-0.626-0.14-1.104-0.418-1.438
		C154.906,42.073,154.509,41.907,153.991,41.907z"/>
	<path class="st0" d="M162.58,45.956c0,0.609-0.227,1.079-0.681,1.41c-0.454,0.33-1.091,0.495-1.911,0.495
		c-0.869,0-1.546-0.137-2.031-0.412v-0.92c0.314,0.159,0.651,0.285,1.013,0.377c0.36,0.091,0.707,0.137,1.042,0.137
		c0.518,0,0.916-0.082,1.194-0.248c0.279-0.165,0.419-0.417,0.419-0.755c0-0.255-0.111-0.474-0.332-0.654
		c-0.221-0.182-0.652-0.396-1.293-0.643c-0.609-0.227-1.043-0.425-1.3-0.594c-0.257-0.17-0.447-0.361-0.573-0.577
		c-0.125-0.215-0.188-0.472-0.188-0.771c0-0.533,0.218-0.954,0.651-1.264c0.435-0.308,1.029-0.463,1.786-0.463
		c0.705,0,1.394,0.144,2.067,0.431l-0.353,0.807c-0.657-0.271-1.253-0.406-1.786-0.406c-0.47,0-0.824,0.073-1.063,0.221
		s-0.358,0.351-0.358,0.609c0,0.175,0.045,0.324,0.135,0.448c0.089,0.123,0.233,0.241,0.433,0.353s0.581,0.272,1.146,0.483
		c0.777,0.283,1.302,0.567,1.574,0.854C162.444,45.162,162.58,45.523,162.58,45.956z"/>
</g>
<g>
	<path class="st1" d="M171.123,9.136c0,0.294,0,0.587,0,0.881c0,5.352-0.009,10.705,0.013,16.057
		c0.002,0.566-0.188,0.814-0.72,0.816c-1.608,0.007-3.215,0.011-4.823,0.001c-0.54-0.004-0.803-0.232-0.788-0.85
		c0.042-1.775,0.015-3.553,0.014-5.329c0-0.25,0-0.5,0-0.804c-1.734,0-3.405,0-5.152,0c0,2.243,0,4.492,0,6.855
		c-0.752,0.098-1.446,0.257-2.141,0.262c-1.149,0.008-2.299-0.082-3.449-0.134c-0.558-0.025-0.764-0.28-0.762-0.876
		c0.023-5.791,0.023-11.581,0-17.372c-0.002-0.59,0.197-0.886,0.754-0.892c1.63-0.017,3.26-0.019,4.889,0.003
		c0.461,0.006,0.701,0.228,0.689,0.783c-0.042,1.864-0.016,3.729-0.016,5.65c1.729,0,3.398,0,5.147,0
		c0.014-0.269,0.038-0.536,0.039-0.803c0.004-1.546,0.048-3.093-0.018-4.636c-0.032-0.749,0.283-1.01,0.934-1.017
		c1.446-0.017,2.893-0.013,4.339-0.018c1.192-0.004,2.383-0.02,3.575-0.01c1.011,0.009,2.021,0.053,3.032,0.072
		c0.554,0.01,0.838,0.312,1.071,0.795c0.929,1.93,1.897,3.843,2.852,5.76c0.071,0.141,0.161,0.273,0.287,0.485
		c0.133-0.217,0.248-0.376,0.334-0.549c0.966-1.937,1.938-3.872,2.883-5.82c0.191-0.393,0.433-0.609,0.872-0.65
		c1.929-0.181,3.852-0.174,5.888,0.108c-0.143,0.304-0.237,0.549-0.367,0.773c-2.068,3.596-4.154,7.182-6.195,10.793
		c-0.266,0.471-0.408,1.069-0.425,1.614c-0.054,1.706-0.037,3.414-0.008,5.121c0.008,0.452-0.175,0.658-0.573,0.662
		c-1.699,0.017-3.398,0.02-5.097,0.007c-0.461-0.003-0.664-0.241-0.655-0.751c0.031-1.799,0.019-3.599,0.004-5.398
		c-0.002-0.29-0.026-0.62-0.163-0.861c-2.032-3.588-4.086-7.164-6.134-10.742C171.209,9.126,171.166,9.131,171.123,9.136z"/>
	<path class="st1" d="M5.817,13.284c0,4.217,0,8.433,0,12.65c0,1.141,0.002,1.2-1.165,1.234c-1.372,0.039-2.748-0.044-4.122-0.065
		c-0.654-0.01-0.755-0.381-0.749-0.948c0.025-2.237,0.01-4.474,0.01-6.711c0-5.881,0.012-11.762-0.015-17.643
		c-0.003-0.705,0.187-1.025,0.911-1.014C1.97,0.806,3.254,0.8,4.537,0.79C5.096,0.786,5.391,1.09,5.659,1.546
		c2.475,4.211,4.968,8.411,7.457,12.614c0.09,0.152,0.192,0.297,0.419,0.429c0-0.239,0-0.478,0-0.717c0-3.99,0-7.98,0-11.97
		c0-1.008,0-1.063,1.006-1.097c1.443-0.048,2.89-0.006,4.335-0.004c0.494,0.001,0.657,0.23,0.656,0.733
		c-0.016,8.28-0.018,16.559-0.009,24.839c0,0.449-0.13,0.648-0.587,0.742c-1.494,0.308-2.98,0.288-4.447-0.093
		c-0.278-0.072-0.544-0.395-0.707-0.667c-2.517-4.186-5.016-8.383-7.52-12.577c-0.105-0.176-0.216-0.348-0.325-0.522
		C5.898,13.266,5.857,13.275,5.817,13.284z"/>
	<path class="st1" d="M56.054,13.436c0.086,1.111,0.218,2.071,0.226,3.032c0.027,3.253-0.008,6.506,0.025,9.759
		c0.007,0.693-0.235,0.967-0.898,0.963c-1.562-0.009-3.123-0.005-4.685-0.007c-0.573,0-0.791-0.258-0.786-0.855
		c0.025-3.091,0.019-6.183,0.005-9.274c-0.003-0.619-0.026-1.25-0.152-1.852c-0.286-1.369-0.906-1.852-2.304-1.903
		c-0.252-0.009-0.507,0.039-0.759,0.029c-0.592-0.022-0.776,0.237-0.772,0.834c0.025,4.06-0.001,8.121,0.028,12.181
		c0.004,0.608-0.199,0.843-0.772,0.842c-1.562-0.003-3.123,0.001-4.685,0.001c-0.61,0-0.879-0.231-0.876-0.914
		c0.027-5.491,0.015-10.981,0.015-16.472c0-0.373-0.026-0.698,0.468-0.861c3.477-1.143,7.008-1.48,10.618-0.8
		c0.36,0.068,0.755,0.122,1.053,0.31c0.802,0.507,1.519,0.385,2.372,0.046c2.414-0.961,4.922-0.896,7.397-0.267
		c2.81,0.714,4.786,3.23,4.861,6.265c0.099,3.988,0.068,7.978,0.108,11.968c0.005,0.47-0.193,0.702-0.635,0.705
		c-1.677,0.011-3.353,0.01-5.03,0.004c-0.579-0.002-0.693-0.356-0.69-0.873c0.016-3.184,0.015-6.367,0-9.551
		c-0.003-0.549-0.037-1.111-0.161-1.642c-0.281-1.203-0.902-1.72-2.131-1.775C57.29,13.302,56.681,13.396,56.054,13.436z"/>
	<path class="st1" d="M95.997,7.853c0-2.111,0.031-4.115-0.017-6.118c-0.017-0.705,0.228-0.952,0.896-0.945
		c1.561,0.018,3.122,0.01,4.683,0.013c0.521,0.001,0.762,0.193,0.761,0.786c-0.019,8.072-0.017,16.144-0.002,24.216
		c0.001,0.514-0.17,0.717-0.664,0.84c-2.903,0.721-5.844,1.1-8.825,0.798c-5.355-0.544-7.936-4.067-8.185-8.63
		c-0.145-2.651,0.321-5.15,1.953-7.315c1.69-2.241,3.962-3.462,6.768-3.637C94.206,7.809,95.055,7.853,95.997,7.853z M95.948,22.054
		c0-3.098,0-6.011,0-8.913c-2.411-0.512-4.1,0.405-4.625,2.651c-0.241,1.03-0.269,2.148-0.179,3.208
		c0.125,1.474,0.941,2.559,2.443,2.897C94.329,22.065,95.123,22.007,95.948,22.054z"/>
	<path class="st1" d="M19.724,17.725c-0.071-1.775,0.218-3.49,0.963-5.107c1.297-2.813,3.563-4.305,6.577-4.763
		c1.546-0.235,3.084-0.194,4.597,0.17c2.956,0.712,4.999,2.496,5.982,5.386c0.979,2.879,1,5.799-0.045,8.662
		c-1.208,3.309-3.739,4.963-7.148,5.376c-1.611,0.195-3.225,0.129-4.79-0.335c-3.582-1.064-5.409-3.618-6.01-7.186
		c-0.05-0.295-0.107-0.591-0.121-0.889C19.709,18.602,19.724,18.163,19.724,17.725z M32.325,17.75
		c-0.241-1.061-0.38-2.117-0.73-3.098c-0.393-1.099-1.285-1.607-2.485-1.613c-1.203-0.006-2.081,0.499-2.502,1.594
		c-0.779,2.027-0.794,4.097-0.006,6.13c0.428,1.104,1.321,1.621,2.494,1.623c1.174,0.002,2.094-0.513,2.493-1.618
		C31.935,19.809,32.082,18.779,32.325,17.75z"/>
	<path class="st1" d="M124.703,19.417c0.381,1.473,1.404,2.295,2.873,2.433c1.822,0.171,3.588-0.103,5.288-0.737
		c0.56-0.209,0.842-0.078,0.976,0.434c0.35,1.326,0.689,2.656,0.98,3.996c0.039,0.178-0.175,0.556-0.349,0.614
		c-3.473,1.167-7.003,1.613-10.56,0.447c-2.576-0.844-4.298-2.618-5.088-5.233c-0.808-2.676-0.803-5.366,0.09-8.013
		c1.543-4.573,5.736-6.313,9.903-5.84c3.946,0.447,6.732,3.404,6.985,7.73c0.068,1.162-0.097,2.336-0.107,3.505
		c-0.005,0.584-0.291,0.673-0.782,0.671c-3.136-0.013-6.272-0.007-9.408-0.006C125.256,19.417,125.006,19.417,124.703,19.417z
		 M130.064,15.016c-0.019-1.764-1.193-2.88-2.856-2.779c-1.517,0.092-2.722,1.392-2.536,2.779
		C126.451,15.016,128.236,15.016,130.064,15.016z"/>
	<path class="st1" d="M117.383,6.442c0,0.346,0,0.639,0,0.932c0,6.137-0.01,12.273,0.014,18.41c0.003,0.666-0.147,0.968-0.863,1.07
		c-1.776,0.251-3.53,0.229-5.296-0.069c-0.55-0.093-0.431-0.445-0.432-0.765c-0.006-3.945-0.004-7.89-0.004-11.835
		c0-2.307,0-4.614,0-6.921c0-0.25,0-0.5,0-0.817c-0.301-0.017-0.546-0.041-0.79-0.042c-1.569-0.004-3.138-0.015-4.706,0.006
		c-0.427,0.006-0.637-0.15-0.706-0.561c-0.268-1.58-0.276-3.157,0.003-4.737c0.07-0.398,0.254-0.582,0.692-0.581
		c5.837,0.012,11.673,0.01,17.51,0.002c0.449-0.001,0.629,0.143,0.709,0.617c0.255,1.517,0.229,3.016,0.019,4.536
		c-0.087,0.631-0.351,0.734-0.893,0.725c-1.476-0.025-2.953-0.01-4.429-0.007C117.964,6.405,117.717,6.426,117.383,6.442z"/>
	<path class="st1" d="M77.459,14.777c-0.027-0.955-0.551-1.508-1.253-1.646c-1.089-0.214-2.228-0.311-3.336-0.254
		c-0.949,0.049-1.888,0.366-2.823,0.599c-0.341,0.085-0.534,0.047-0.718-0.286c-0.639-1.156-0.95-2.394-0.946-3.703
		c0.001-0.234,0.197-0.619,0.383-0.677c3.043-0.945,6.132-1.519,9.305-0.723c3.259,0.818,5.175,3.204,5.246,6.675
		c0.075,3.666,0.028,7.335,0.008,11.003c-0.001,0.205-0.204,0.543-0.378,0.594c-3.623,1.053-7.291,1.588-11.032,0.689
		c-4.252-1.022-5.367-4.615-4.531-7.983c0.362-1.461,1.399-2.466,2.713-3.165c1.606-0.855,3.35-1.108,5.142-1.122
		C75.947,14.773,76.659,14.777,77.459,14.777z M77.571,18.673c-1.131,0.095-2.19,0.092-3.208,0.294
		c-1.222,0.242-1.743,0.956-1.695,1.99c0.044,0.938,0.665,1.577,1.902,1.719c0.876,0.101,1.775,0.016,2.663-0.021
		c0.117-0.005,0.321-0.215,0.323-0.334C77.581,21.156,77.571,19.99,77.571,18.673z"/>
	<path class="st1" d="M136.948,17.714c0.029-3.179,0.676-5.757,2.756-7.8c1.567-1.539,3.511-2.26,5.654-2.431
		c2.153-0.172,4.275,0.036,6.317,0.821c0.422,0.162,0.623,0.369,0.605,0.85c-0.05,1.355-0.373,2.632-0.937,3.861
		c-0.178,0.388-0.367,0.498-0.791,0.344c-1.23-0.444-2.509-0.558-3.809-0.455c-1.715,0.136-2.866,1.105-3.244,2.782
		c-0.256,1.136-0.269,2.282,0.031,3.417c0.453,1.714,1.679,2.763,3.448,2.71c1.177-0.035,2.358-0.295,3.513-0.559
		c0.485-0.111,0.71-0.049,0.921,0.379c0.642,1.298,1.076,2.648,0.999,4.11c-0.012,0.225-0.238,0.552-0.443,0.635
		c-1.937,0.773-3.972,0.934-6.033,0.861c-1.558-0.055-3.061-0.367-4.448-1.109c-2.581-1.381-3.887-3.642-4.357-6.446
		C137.001,18.915,136.984,18.128,136.948,17.714z"/>
</g>
</svg>
