<svg width="38" height="38" viewBox="0 0 38 38" fill="none" xmlns="http://www.w3.org/2000/svg">
<circle cx="19" cy="19" r="19" fill="#53C4FF"/>
<path d="M22.7452 12.2288C22.4029 12.1656 22.127 11.946 21.8072 11.8296C21.5561 11.7382 21.3045 11.6477 21.0569 11.5475C20.6562 11.3851 20.5888 11.351 20.5851 10.9154C20.5797 10.2899 20.6115 9.66423 20.5653 9.03874C20.5196 8.41905 20.1302 8.02173 19.5084 8.00973C18.8362 7.99676 18.1635 7.99676 17.4913 8.00973C16.8694 8.02173 16.4795 8.41897 16.4344 9.03874C16.3884 9.6719 16.4234 10.3055 16.4132 10.9388C16.4074 11.2986 16.3438 11.4094 16.0129 11.5235C15.5145 11.6953 15.0247 11.884 14.5581 12.1326C14.2996 12.2704 14.2121 12.2517 13.9974 12.0401C13.5485 11.5977 13.1024 11.1523 12.6604 10.7031C12.393 10.4314 12.0737 10.3162 11.6978 10.3528C11.4879 10.3733 11.311 10.4692 11.1586 10.6106C10.6395 11.0923 10.1509 11.6042 9.65298 12.1072C9.23093 12.5335 9.25762 13.2228 9.67982 13.6369C10.0903 14.0394 10.4962 14.4468 10.8997 14.8564C11.2544 15.2165 11.2815 15.2429 11.0382 15.7457C10.8497 16.1354 10.6955 16.537 10.545 16.942C10.396 17.343 10.3536 17.4113 9.91533 17.4148C9.28985 17.4197 8.66421 17.3882 8.03873 17.4344C7.41905 17.4801 7.02173 17.8695 7.00973 18.4914C6.99676 19.1636 6.99676 19.8363 7.00973 20.5085C7.02173 21.1304 7.41896 21.5204 8.03873 21.5654C8.67188 21.6114 9.30543 21.5764 9.93875 21.5866C10.2985 21.5924 10.4093 21.6561 10.5234 21.9869C10.6953 22.4853 10.8839 22.9752 11.1326 23.4418C11.2703 23.7002 11.2516 23.7878 11.04 24.0025C10.6055 24.4435 10.1797 24.8948 9.7234 25.3124C9.29548 25.704 9.19707 26.4543 9.67485 26.918C10.1585 27.3874 10.6293 27.8711 11.1074 28.3468C11.5328 28.7699 12.2229 28.7423 12.637 28.3201C13.0474 27.9019 13.4641 27.4898 13.8795 27.0764C14.2045 26.753 14.3063 26.7473 14.7249 26.9566C15.1174 27.1528 15.5288 27.3057 15.9419 27.4556C16.3438 27.6016 16.4114 27.6464 16.4148 28.0846C16.4198 28.7101 16.3883 29.3358 16.4345 29.9613C16.4802 30.5809 16.8696 30.9783 17.4915 30.9903C18.1636 31.0032 18.8364 31.0032 19.5085 30.9903C20.1304 30.9783 20.5204 30.581 20.5654 29.9613C20.6114 29.3281 20.5764 28.6945 20.5866 28.0612C20.5924 27.7014 20.6561 27.5906 20.9869 27.4765C21.4853 27.3047 21.9752 27.116 22.4418 26.8674C22.7002 26.7296 22.7878 26.7483 23.0025 26.9599C23.4435 27.3944 23.8938 27.8211 24.3127 28.2763C24.7122 28.7103 25.4339 28.7988 25.9156 28.3231C26.3956 27.849 26.8772 27.3772 27.3449 26.8906C27.7739 26.4443 27.7454 25.7852 27.3197 25.3634C26.8877 24.9354 26.4547 24.5082 26.0308 24.0723C25.745 23.7785 25.693 23.7834 25.9331 23.3221C26.144 22.9169 26.2966 22.4863 26.455 22.058C26.6049 21.6528 26.6492 21.589 27.0847 21.5852C27.7102 21.5798 28.3358 21.6117 28.9613 21.5655C29.581 21.5198 29.9783 21.1304 29.9903 20.5085C30.0032 19.8363 30.0032 19.1636 29.9903 18.4914C29.9783 17.8695 29.581 17.4796 28.9613 17.4345C28.3281 17.3885 27.6946 17.4235 27.0613 17.4133C26.7015 17.4075 26.5907 17.3439 26.4766 17.013C26.3047 16.5146 26.1161 16.0247 25.8674 15.5581C25.7297 15.2997 25.7484 15.2121 25.96 14.9974C26.3945 14.5564 26.8199 14.1046 27.2766 13.6875C27.7319 13.2716 27.7804 12.5228 27.3254 12.0817C26.8415 11.6126 26.3785 11.1213 25.8903 10.6553C25.4585 10.243 24.7971 10.2452 24.3638 10.6803C23.9425 11.1035 23.5198 11.5252 23.0973 11.947C22.9982 12.0459 22.9065 12.1547 22.7691 12.2052" stroke="#1A2A44" stroke-width="1.5" stroke-linecap="round" stroke-linejoin="round"/>
<path d="M18.1241 15.0866C17.6689 15.1707 17.2095 15.2388 16.7831 15.4339C15.2809 16.121 14.3792 17.2642 14.1251 18.9073C13.8036 20.9871 15.1254 23.0404 17.0564 23.6709C18.6099 24.1781 20.0271 23.9196 21.3018 22.901C22.2803 22.1192 22.8017 21.0751 22.9063 19.8494C23.004 18.7038 22.6741 17.6566 21.9479 16.7492C21.157 15.7608 20.1095 15.2413 18.8685 15.0908C18.632 15.0622 18.3889 15.0867 18.1489 15.0867" stroke="#1A2A44" stroke-width="1.5" stroke-linecap="round" stroke-linejoin="round"/>
</svg>
