<?xml version="1.0" encoding="utf-8"?>
<!-- Generator: Adobe Illustrator 24.2.1, SVG Export Plug-In . SVG Version: 6.00 Build 0)  -->
<svg version="1.1" id="Layer_1" xmlns="http://www.w3.org/2000/svg" xmlns:xlink="http://www.w3.org/1999/xlink" x="0px" y="0px"
	 viewBox="0 0 16.9 17" style="enable-background:new 0 0 16.9 17;" xml:space="preserve">
<style type="text/css">
	.st0{fill:#353C44;}
</style>
<g id="Layer_2_1_">
	<g id="Layer_1-2">
		<path class="st0" d="M12.8,17c-2.2,0-5.3-1.7-8.2-4.6c-4-4-5.6-8.4-3.9-10.3l1.5-1.5c0.8-0.8,2.1-0.8,2.9,0l2.2,2.2
			C7.6,3,7.8,3.3,7.9,3.6C8,4.1,8,4.7,7.8,5.1C7.5,5.6,7.1,6,6.6,6.2C6.1,6.3,5.9,6.8,6,7.2c0.6,1.7,2,3.1,3.7,3.7
			c0.4,0.1,0.9-0.2,1-0.6c0.1-0.3,0.3-0.6,0.5-0.8c0.8-0.8,2.1-0.8,2.9,0l2.2,2.2c0.8,0.8,0.8,2.1,0,2.9l-1.5,1.5
			C14.4,16.7,13.7,17,12.8,17z M3.7,1.1C3.4,1.1,3.2,1.2,3,1.4L1.5,2.9c-1.1,1.2,0.2,5,3.9,8.7c3.8,3.8,7.5,5,8.7,3.9l1.5-1.5
			c0.3-0.4,0.3-1,0-1.3l-2.2-2.2c-0.4-0.4-0.9-0.4-1.3,0c-0.1,0.1-0.2,0.2-0.2,0.4c-0.4,1-1.4,1.5-2.4,1.3c-2.1-0.8-3.8-2.4-4.5-4.5
			C4.6,6.5,5.2,5.4,6.2,5.1C6.4,5,6.6,4.9,6.7,4.6c0.1-0.2,0.1-0.5,0-0.7c0-0.1-0.1-0.3-0.2-0.4L4.3,1.4C4.2,1.2,3.9,1.1,3.7,1.1z"
			/>
	</g>
</g>
</svg>
