<svg xmlns="http://www.w3.org/2000/svg" viewBox="0 0 16.929 16.962"><defs><style>.cls-1{fill:none;stroke:#315497;stroke-miterlimit:10;stroke-width:1.128px;}</style></defs><g id="Layer_2" data-name="Layer 2"><g id="Layer_1-2" data-name="Layer 1"><path class="cls-1" d="M15.951,12.185l-2.21-2.21a1.47,1.47,0,0,0-2.447.552,1.5,1.5,0,0,1-1.736.947,6.814,6.814,0,0,1-4.1-4.1A1.432,1.432,0,0,1,6.4,5.634a1.469,1.469,0,0,0,.553-2.446L4.744.978a1.577,1.577,0,0,0-2.131,0l-1.5,1.5c-1.5,1.578.158,5.761,3.867,9.47s7.892,5.445,9.47,3.867l1.5-1.5A1.576,1.576,0,0,0,15.951,12.185Z"/></g></g></svg>