<?xml version="1.0" encoding="utf-8"?>
<!-- Generator: Adobe Illustrator 24.2.1, SVG Export Plug-In . SVG Version: 6.00 Build 0)  -->
<svg version="1.1" id="Layer_1" xmlns="http://www.w3.org/2000/svg" xmlns:xlink="http://www.w3.org/1999/xlink" x="0px" y="0px"
	 viewBox="0 0 16.929 16.962" style="enable-background:new 0 0 16.929 16.962;" xml:space="preserve">
<style type="text/css">
	.st0{fill:#FFFFFF;}
</style>
<g id="Layer_2_1_">
	<g id="Layer_1-2">
		<path class="st0" d="M12.83,16.951c-2.192,0-5.322-1.678-8.249-4.604C0.599,8.364-1.068,3.954,0.704,2.089l1.51-1.51
			c0.843-0.772,2.087-0.772,2.911-0.017l2.227,2.227c0.225,0.218,0.401,0.498,0.504,0.802C8.03,4.106,7.993,4.658,7.752,5.145
			C7.511,5.631,7.095,5.995,6.58,6.168c-0.45,0.146-0.7,0.609-0.578,1.058c0.62,1.714,1.99,3.085,3.747,3.718
			c0.39,0.077,0.854-0.171,1.016-0.61c0.1-0.292,0.275-0.57,0.505-0.793c0.805-0.781,2.097-0.763,2.876,0.042l2.222,2.222
			c0.755,0.826,0.754,2.069-0.001,2.893l-1.518,1.518C14.35,16.713,13.656,16.951,12.83,16.951z M3.685,1.124
			c-0.245,0-0.494,0.089-0.691,0.271L1.512,2.877C0.386,4.061,1.665,7.835,5.379,11.55c3.751,3.751,7.513,5.028,8.673,3.866
			l1.5-1.499c0.338-0.37,0.341-0.953-0.01-1.344l-2.199-2.2C12.988,10.01,12.415,10,12.055,10.35
			c-0.102,0.099-0.181,0.223-0.227,0.359c-0.36,0.982-1.389,1.544-2.395,1.314C7.293,11.258,5.675,9.64,4.927,7.565
			c-0.295-1.074,0.282-2.14,1.299-2.468C6.449,5.022,6.634,4.86,6.741,4.644c0.107-0.216,0.124-0.462,0.046-0.691
			c-0.046-0.136-0.125-0.26-0.228-0.36L4.345,1.377C4.161,1.208,3.925,1.124,3.685,1.124z"/>
	</g>
</g>
</svg>
